<svg width="482" height="393" viewBox="0 0 482 393" fill="none" xmlns="http://www.w3.org/2000/svg">
<path d="M59.804 234.037C77.336 234.037 91.5485 227.262 91.5485 218.905C91.5485 210.549 77.336 203.774 59.804 203.774C42.2721 203.774 28.0596 210.549 28.0596 218.905C28.0596 227.262 42.2721 234.037 59.804 234.037Z" fill="#E0E0E0"/>
<path d="M40.416 191.484C39.9346 185.49 35.3187 175.267 28.4658 167.98C21.6128 160.693 10.6727 157.191 3.92353 160.127C-2.3725 162.855 -0.984916 171.293 7.32169 176.287C15.6283 181.28 27.9466 187.397 32.2132 196.846L40.416 208.173V191.484Z" fill="#FF725E"/>
<path opacity="0.1" d="M40.416 191.484C39.9346 185.49 35.3187 175.267 28.4658 167.98C21.6128 160.693 10.6727 157.191 3.92353 160.127C-2.3725 162.855 -0.984916 171.293 7.32169 176.287C15.6283 181.28 27.9466 187.397 32.2132 196.846L40.416 208.173V191.484Z" fill="black"/>
<path d="M41.2841 199.338H41.4162C41.5203 199.301 41.6061 199.226 41.6554 199.127C41.7047 199.028 41.7137 198.914 41.6805 198.809C34.9409 178.477 15.8262 164.828 7.89718 163.544C7.84324 163.534 7.78795 163.536 7.73451 163.548C7.68107 163.56 7.63052 163.582 7.58577 163.614C7.54103 163.645 7.50298 163.685 7.4738 163.732C7.44462 163.778 7.4249 163.83 7.41577 163.884C7.39939 163.994 7.42679 164.106 7.49209 164.196C7.55739 164.286 7.65538 164.346 7.76503 164.365C15.5242 165.639 34.2518 179.043 40.8876 199.073C40.9186 199.153 40.9733 199.221 41.0442 199.268C41.1151 199.315 41.1989 199.34 41.2841 199.338Z" fill="white"/>
<path d="M39.5193 216.234C38.2922 212.94 33.7236 207.739 26.7007 203.651C18.9227 199.168 9.41729 197.582 6.95362 193.797C3.98967 189.257 7.63325 184.442 15.2697 184.773C22.9061 185.103 37.0462 194.373 40.416 209.721L39.5193 216.234Z" fill="#FF725E"/>
<path d="M39.8775 209.995C39.94 209.992 40.0013 209.976 40.0568 209.948C40.1058 209.923 40.1496 209.89 40.1856 209.849C40.2217 209.808 40.2492 209.76 40.2668 209.708C40.2843 209.657 40.2915 209.602 40.2878 209.547C40.2842 209.493 40.2699 209.44 40.2456 209.391C33.6381 196.298 19.7906 190.182 12.6262 188.624C12.5174 188.602 12.404 188.623 12.3105 188.683C12.217 188.743 12.1507 188.837 12.1259 188.945C12.1035 189.053 12.1247 189.165 12.1849 189.257C12.2451 189.349 12.3392 189.413 12.4468 189.436C19.4697 190.956 33.0623 196.987 39.4999 209.768C39.5369 209.836 39.5915 209.893 39.6579 209.933C39.7242 209.973 39.8001 209.994 39.8775 209.995Z" fill="white"/>
<path d="M160.725 206.25V202.779L292.356 130.235C293.321 129.742 294.389 129.484 295.473 129.484C296.557 129.484 297.625 129.742 298.59 130.235L481.126 233.235V236.656C481.093 237.041 480.959 237.411 480.736 237.727C480.513 238.043 480.21 238.294 479.859 238.455L348.227 314.469L160.725 206.25Z" fill="#FF725E"/>
<path opacity="0.1" d="M481.126 236.655V233.235L478.896 231.968L348.202 311.01V314.482L479.834 238.467C480.192 238.309 480.501 238.057 480.729 237.739C480.956 237.42 481.093 237.046 481.126 236.655Z" fill="black"/>
<path d="M160.725 202.766L292.356 126.751C293.321 126.258 294.389 126 295.473 126C296.557 126 297.625 126.258 298.59 126.751L479.833 231.385C481.556 232.373 481.556 233.995 479.833 234.983L348.202 310.998L160.725 202.766Z" fill="#FF725E"/>
<path opacity="0.2" d="M348.202 314.482V311.01L160.725 202.766V206.237L348.202 314.482Z" fill="black"/>
<path d="M163.728 207.91L30.7023 277.97L27.9277 282.264V285.736C27.9643 286.629 28.2367 287.498 28.7173 288.252C29.198 289.006 29.8697 289.62 30.6643 290.031L206.03 391.282C207.436 392.031 209.004 392.422 210.597 392.422C212.19 392.422 213.758 392.031 215.164 391.282L345.263 316.18V312.67L163.728 207.91Z" fill="#FF725E"/>
<path opacity="0.1" d="M163.728 207.91L30.7023 277.97L27.9277 282.264V285.736C27.9643 286.629 28.2367 287.498 28.7173 288.252C29.198 289.006 29.8697 289.62 30.6643 290.031L206.03 391.282C207.436 392.031 209.004 392.422 210.597 392.422C212.19 392.422 213.758 392.031 215.164 391.282L345.263 316.18V312.67L163.728 207.91Z" fill="black"/>
<path d="M210.603 388.95C209.007 388.97 207.433 388.582 206.029 387.823L30.6638 286.572C29.8468 286.188 29.1558 285.58 28.6718 284.819C28.1877 284.057 27.9307 283.173 27.9307 282.271C27.9307 281.368 28.1877 280.484 28.6718 279.722C29.1558 278.961 29.8468 278.353 30.6638 277.969L157.874 204.489L345.262 312.67L215.164 387.823C213.764 388.581 212.194 388.969 210.603 388.95Z" fill="#FF725E"/>
<path d="M157.875 194.354L32.1087 266.96L30.8418 268.772V282.264C30.8744 282.65 31.0089 283.019 31.2315 283.335C31.4541 283.652 31.7569 283.903 32.1087 284.063L207.474 385.327C208.443 385.814 209.513 386.068 210.597 386.068C211.681 386.068 212.751 385.814 213.72 385.327L339.486 312.67V299.216L157.875 194.354Z" fill="#EBEBEB"/>
<path d="M339.499 299.216L337.928 300.128L317.455 311.935L313.654 314.152L213.733 371.822C212.766 372.316 211.696 372.573 210.61 372.573C209.524 372.573 208.454 372.316 207.487 371.822L32.0962 270.571C30.3859 269.57 30.3859 267.961 32.0962 266.96L33.7685 265.997L157.925 194.354L337.991 298.316L338.371 298.544L339.499 299.216Z" fill="#F0F0F0"/>
<path d="M210.603 372.582V386.075C209.517 386.102 208.443 385.844 207.487 385.327L32.096 284.063C31.7442 283.903 31.4415 283.652 31.2188 283.336C30.9962 283.019 30.8617 282.65 30.8291 282.264V268.759C30.8633 269.146 30.9983 269.516 31.2206 269.834C31.443 270.152 31.7448 270.406 32.096 270.571L207.487 371.822C208.442 372.343 209.516 372.605 210.603 372.582Z" fill="#E0E0E0"/>
<path d="M339.498 297.467L316.858 310.529L313.311 312.581L213.732 370.073C212.765 370.567 211.695 370.825 210.609 370.825C209.523 370.825 208.453 370.567 207.486 370.073L50.3895 279.401C48.9833 278.628 47.6657 277.855 46.4368 277.12C40.1022 273.231 36.2002 269.747 33.7677 266.048L33.4636 265.579C33.2752 265.295 33.146 264.976 33.0836 264.641C32.9743 263.933 33.1406 263.21 33.5483 262.621C33.956 262.032 34.5741 261.621 35.2753 261.474C39.3893 260.273 43.3578 258.62 47.1082 256.546L47.2729 256.457L157.874 192.605L339.498 297.467Z" fill="#FAFAFA"/>
<path opacity="0.1" d="M316.009 295.833C314.4 296.77 314.4 298.278 316.009 299.215C316.91 299.682 317.909 299.925 318.923 299.925C319.937 299.925 320.937 299.682 321.837 299.215C323.459 298.278 323.459 296.77 321.837 295.833C320.937 295.366 319.937 295.123 318.923 295.123C317.909 295.123 316.91 295.366 316.009 295.833Z" fill="black"/>
<path d="M334.797 284.899C332.58 283.632 329.793 283.823 326.955 285.444C322.546 287.978 318.746 293.679 317.086 299.634C317.778 299.851 318.503 299.941 319.227 299.9C320.76 294.591 324.143 289.587 328.032 287.319C329.109 286.655 330.34 286.28 331.605 286.23C332.342 286.219 333.068 286.407 333.708 286.774C335.583 287.851 336.672 290.499 336.672 293.996C336.676 294.576 336.643 295.156 336.571 295.731L338.623 296.91C338.763 295.945 338.835 294.971 338.839 293.996C338.813 289.701 337.356 286.382 334.797 284.899Z" fill="#263238"/>
<path d="M338.422 298.037C338.422 298.202 338.358 298.367 338.32 298.544L337.94 298.316L338.422 298.037Z" fill="#263238"/>
<path opacity="0.1" d="M298.488 285.685C296.879 286.622 296.879 288.13 298.488 289.067C299.388 289.534 300.388 289.777 301.402 289.777C302.416 289.777 303.415 289.534 304.316 289.067C305.937 288.13 305.937 286.622 304.316 285.685C303.415 285.218 302.416 284.975 301.402 284.975C300.388 284.975 299.388 285.218 298.488 285.685Z" fill="black"/>
<path d="M317.277 274.752C315.047 273.485 312.273 273.662 309.422 275.296C305.026 277.83 301.225 283.531 299.565 289.486C300.257 289.703 300.983 289.793 301.707 289.752C303.239 284.443 306.609 279.439 310.512 277.171C311.588 276.504 312.819 276.124 314.084 276.069C314.822 276.064 315.548 276.257 316.187 276.627C318.062 277.703 319.152 280.339 319.152 283.848C319.15 284.428 319.116 285.007 319.05 285.584L321.09 286.762C321.237 285.797 321.309 284.823 321.306 283.848C321.255 279.553 319.811 276.234 317.277 274.752Z" fill="#263238"/>
<path opacity="0.1" d="M280.904 275.537C280.556 275.663 280.256 275.893 280.044 276.195C279.832 276.498 279.718 276.859 279.718 277.228C279.718 277.598 279.832 277.958 280.044 278.261C280.256 278.564 280.556 278.794 280.904 278.92C281.807 279.376 282.805 279.614 283.818 279.614C284.83 279.614 285.828 279.376 286.732 278.92C288.353 277.982 288.353 276.462 286.732 275.537C285.831 275.07 284.832 274.827 283.818 274.827C282.803 274.827 281.804 275.07 280.904 275.537Z" fill="black"/>
<path d="M299.641 264.603C297.424 263.337 294.637 263.514 291.799 265.148C287.403 267.682 283.589 273.383 281.93 279.338C282.626 279.554 283.355 279.644 284.083 279.604C285.604 274.295 288.986 269.291 292.876 267.023C293.956 266.353 295.191 265.974 296.461 265.921C297.199 265.916 297.925 266.109 298.564 266.478C300.439 267.555 301.516 270.191 301.516 273.7C301.52 274.28 301.486 274.86 301.415 275.436L303.467 276.614C303.607 275.649 303.679 274.675 303.682 273.7C303.682 269.405 302.213 266.086 299.641 264.603Z" fill="#263238"/>
<path opacity="0.1" d="M263.332 265.389C261.723 266.326 261.723 267.834 263.332 268.772C264.232 269.238 265.231 269.482 266.246 269.482C267.26 269.482 268.259 269.238 269.159 268.772C270.781 267.834 270.781 266.326 269.159 265.389C268.259 264.922 267.26 264.679 266.246 264.679C265.231 264.679 264.232 264.922 263.332 265.389Z" fill="black"/>
<path d="M282.07 254.456C279.853 253.189 277.065 253.366 274.228 255C269.819 257.534 266.018 263.235 264.358 269.19C265.054 269.408 265.784 269.498 266.512 269.456C268.032 264.147 271.415 259.143 275.304 256.875C276.382 256.211 277.612 255.836 278.877 255.786C279.618 255.777 280.348 255.965 280.993 256.331C282.868 257.407 283.945 260.055 283.945 263.552C283.949 264.132 283.915 264.712 283.843 265.288L285.896 266.466C286.036 265.501 286.108 264.527 286.111 263.552C286.111 259.257 284.642 255.938 282.07 254.456Z" fill="#263238"/>
<path opacity="0.1" d="M245.747 255.241C245.4 255.367 245.1 255.597 244.888 255.9C244.675 256.202 244.562 256.563 244.562 256.932C244.562 257.302 244.675 257.663 244.888 257.965C245.1 258.268 245.4 258.498 245.747 258.624C246.651 259.086 247.652 259.328 248.668 259.328C249.683 259.328 250.684 259.086 251.588 258.624C253.197 257.686 253.197 256.179 251.588 255.241C250.684 254.779 249.683 254.537 248.668 254.537C247.652 254.537 246.651 254.779 245.747 255.241Z" fill="black"/>
<path d="M264.497 244.257C262.267 242.99 259.492 243.167 256.642 244.802C252.246 247.336 248.445 253.037 246.785 258.991C247.477 259.209 248.202 259.299 248.926 259.257C250.459 253.949 253.829 248.945 257.731 246.677C258.808 246.011 260.039 245.635 261.304 245.587C262.041 245.578 262.767 245.766 263.407 246.132C265.282 247.209 266.372 249.857 266.372 253.353C266.369 253.933 266.335 254.513 266.27 255.089L268.31 256.267C268.456 255.303 268.528 254.329 268.525 253.353C268.525 249.109 267.056 245.79 264.497 244.257Z" fill="#263238"/>
<path opacity="0.1" d="M228.175 245.093C226.567 246.031 226.567 247.538 228.175 248.476C229.076 248.942 230.075 249.186 231.089 249.186C232.103 249.186 233.103 248.942 234.003 248.476C235.625 247.538 235.625 246.031 234.003 245.093C233.103 244.627 232.103 244.383 231.089 244.383C230.075 244.383 229.076 244.627 228.175 245.093Z" fill="black"/>
<path d="M246.913 234.122C244.695 232.855 241.845 233.032 239.07 234.667C234.662 237.2 230.861 242.901 229.201 248.856C229.897 249.073 230.627 249.163 231.355 249.122C232.875 243.814 236.258 238.809 240.147 236.542C241.225 235.877 242.455 235.502 243.72 235.452C244.461 235.443 245.191 235.631 245.836 235.997C247.711 237.074 248.788 239.722 248.788 243.218C248.792 243.798 248.758 244.378 248.686 244.954L250.739 246.132C250.879 245.167 250.951 244.193 250.954 243.218C250.954 238.961 249.484 235.642 246.913 234.122Z" fill="#263238"/>
<path opacity="0.1" d="M210.603 234.945C208.994 235.883 208.994 237.39 210.603 238.328C211.504 238.794 212.503 239.038 213.517 239.038C214.531 239.038 215.531 238.794 216.431 238.328C218.053 237.39 218.053 235.883 216.431 234.945C215.531 234.479 214.531 234.235 213.517 234.235C212.503 234.235 211.504 234.479 210.603 234.945Z" fill="black"/>
<path d="M229.34 223.986C227.111 222.719 224.273 222.897 221.485 224.531C217.089 227.065 213.289 232.766 211.629 238.721C212.321 238.938 213.046 239.028 213.77 238.987C215.303 233.678 218.686 228.674 222.575 226.406C223.652 225.742 224.883 225.367 226.148 225.317C226.885 225.306 227.611 225.494 228.251 225.861C230.126 226.938 231.215 229.586 231.215 233.083C231.219 233.663 231.186 234.243 231.114 234.818L233.154 235.997C233.304 235.033 233.381 234.058 233.382 233.083C233.382 228.813 231.899 225.494 229.34 223.986Z" fill="#263238"/>
<path opacity="0.1" d="M193.018 224.797C192.67 224.923 192.37 225.153 192.158 225.456C191.946 225.758 191.832 226.119 191.832 226.489C191.832 226.858 191.946 227.219 192.158 227.521C192.37 227.824 192.67 228.054 193.018 228.18C193.918 228.646 194.918 228.89 195.932 228.89C196.946 228.89 197.945 228.646 198.846 228.18C200.467 227.242 200.467 225.735 198.846 224.797C197.945 224.331 196.946 224.087 195.932 224.087C194.918 224.087 193.918 224.331 193.018 224.797Z" fill="black"/>
<path d="M211.756 213.851C209.539 212.584 206.689 212.762 203.914 214.396C199.518 216.93 195.705 222.631 194.045 228.585C194.741 228.802 195.471 228.892 196.199 228.851C197.732 223.543 201.102 218.539 204.991 216.271C206.072 215.605 207.307 215.229 208.576 215.182C209.313 215.172 210.04 215.36 210.679 215.726C212.554 216.803 213.631 219.451 213.631 222.948C213.635 223.528 213.602 224.108 213.53 224.683L215.582 225.862C215.722 224.897 215.794 223.923 215.798 222.948C215.798 218.666 214.328 215.346 211.756 213.851Z" fill="#263238"/>
<path opacity="0.1" d="M175.447 214.649C173.838 215.587 173.838 217.094 175.447 218.032C176.347 218.498 177.347 218.742 178.361 218.742C179.375 218.742 180.374 218.498 181.275 218.032C182.896 217.094 182.896 215.587 181.275 214.649C180.374 214.183 179.375 213.939 178.361 213.939C177.347 213.939 176.347 214.183 175.447 214.649Z" fill="black"/>
<path d="M194.184 203.716C191.967 202.449 189.116 202.626 186.342 204.261C181.946 206.795 178.132 212.496 176.473 218.45C177.169 218.667 177.898 218.758 178.626 218.716C180.147 213.408 183.529 208.404 187.419 206.136C188.499 205.466 189.734 205.086 191.004 205.034C191.742 205.029 192.468 205.221 193.107 205.591C194.982 206.668 196.059 209.303 196.059 212.812C196.063 213.393 196.029 213.972 195.958 214.548L198.01 215.726C198.15 214.761 198.222 213.788 198.225 212.812C198.187 208.518 196.756 205.198 194.184 203.716Z" fill="#263238"/>
<path opacity="0.1" d="M157.862 204.501C157.514 204.627 157.214 204.857 157.002 205.16C156.79 205.462 156.676 205.823 156.676 206.193C156.676 206.562 156.79 206.923 157.002 207.226C157.214 207.528 157.514 207.758 157.862 207.884C158.766 208.347 159.767 208.588 160.782 208.588C161.797 208.588 162.798 208.347 163.702 207.884C165.311 206.946 165.311 205.439 163.702 204.501C162.798 204.039 161.797 203.798 160.782 203.798C159.767 203.798 158.766 204.039 157.862 204.501Z" fill="black"/>
<path d="M176.65 193.581C174.42 192.314 171.646 192.491 168.795 194.125C164.399 196.659 160.585 202.36 158.938 208.315C159.63 208.532 160.356 208.622 161.08 208.581C162.613 203.273 165.982 198.268 169.885 196C170.961 195.335 172.192 194.959 173.457 194.911C174.194 194.902 174.92 195.09 175.56 195.456C177.435 196.533 178.525 199.18 178.525 202.677C178.523 203.257 178.489 203.836 178.424 204.413L180.463 205.591C180.61 204.627 180.682 203.652 180.679 202.677C180.641 198.37 179.184 195.05 176.65 193.581Z" fill="#263238"/>
<path d="M289.785 294.084L193.019 349.955" stroke="#EBEBEB" stroke-width="0.569223" stroke-miterlimit="10" stroke-linecap="round"/>
<path d="M278.066 287.319L181.312 343.19" stroke="#EBEBEB" stroke-width="0.569223" stroke-miterlimit="10" stroke-linecap="round"/>
<path d="M266.347 280.554L169.593 336.424" stroke="#EBEBEB" stroke-width="0.569223" stroke-miterlimit="10" stroke-linecap="round"/>
<path d="M254.628 273.789L157.874 329.659" stroke="#EBEBEB" stroke-width="0.569223" stroke-miterlimit="10" stroke-linecap="round"/>
<path d="M242.909 267.023L146.155 322.894" stroke="#EBEBEB" stroke-width="0.569223" stroke-miterlimit="10" stroke-linecap="round"/>
<path d="M231.191 260.258L134.438 316.129" stroke="#EBEBEB" stroke-width="0.569223" stroke-miterlimit="10" stroke-linecap="round"/>
<path d="M219.472 253.493L122.718 309.351" stroke="#EBEBEB" stroke-width="0.569223" stroke-miterlimit="10" stroke-linecap="round"/>
<path d="M207.753 246.728L110.999 302.586" stroke="#EBEBEB" stroke-width="0.569223" stroke-miterlimit="10" stroke-linecap="round"/>
<path d="M196.034 239.962L99.2803 295.82" stroke="#EBEBEB" stroke-width="0.569223" stroke-miterlimit="10" stroke-linecap="round"/>
<path d="M184.314 233.197L87.5605 289.055" stroke="#EBEBEB" stroke-width="0.569223" stroke-miterlimit="10" stroke-linecap="round"/>
<path d="M172.596 226.432L75.8418 282.29" stroke="#EBEBEB" stroke-width="0.569223" stroke-miterlimit="10" stroke-linecap="round"/>
<path d="M160.878 219.666L64.124 275.524" stroke="#EBEBEB" stroke-width="0.569223" stroke-miterlimit="10" stroke-linecap="round"/>
<path d="M149.158 212.901L52.4043 268.759" stroke="#EBEBEB" stroke-width="0.569223" stroke-miterlimit="10" stroke-linecap="round"/>
<g opacity="0.25">
<path opacity="0.25" d="M207.677 305.537C207.335 304.131 207.284 302.598 208.589 302.433C209.21 302.357 208.766 301.509 208.297 301.483C206.549 301.483 206.004 302.953 206.232 304.777C205.534 304.455 204.804 304.209 204.053 304.042C202.913 303.827 202.178 303.802 201.811 304.955C201.583 305.651 202.14 306.095 202.09 306.728C202.026 307.64 202.951 307.26 201.57 307.628C201.033 307.622 200.499 307.562 199.974 307.45C198.58 307.45 198.466 307.45 197.617 308.185C196.768 308.92 198.884 309.262 196.35 308.857C195.711 308.638 195.036 308.543 194.361 308.578C193.437 308.793 192.942 309.059 193.094 310.085C193.17 310.554 194.171 311.162 194.159 311.454C194.159 313.684 191.739 311.796 190.839 311.454C190.78 311.427 190.715 311.415 190.649 311.419C190.584 311.423 190.521 311.443 190.465 311.476C190.409 311.51 190.362 311.556 190.328 311.612C190.294 311.668 190.274 311.731 190.269 311.796C190.269 312.898 191.004 313.291 189.395 313.379C189.205 313.379 188.128 312.784 187.748 312.771C186.722 312.771 185.784 314.114 184.441 314.038C184.074 314.038 183.947 314.342 184.061 314.634C184.429 315.635 184.974 316.243 182.947 317.168C182.947 317.168 180.565 316.876 180.615 316.876C180.033 316.876 180.413 317.814 180.856 317.852C181.781 317.915 184.91 319.233 185.835 317.991C186.507 317.066 185.164 316.002 185.506 315.457C185.278 315.837 187.292 314.912 187.507 314.836C188.007 314.616 188.536 314.471 189.078 314.406C189.357 314.406 189.585 314.862 189.889 314.849C190.193 314.836 190.687 315.039 191.042 314.849C191.397 314.659 191.485 314.19 191.625 314.102C191.98 313.861 191.169 313.582 191.866 313.341C192.372 313.164 192.816 313.684 193.284 313.823C194.045 314.064 195.185 314.621 195.818 313.823C196.667 312.771 195.122 312.037 195.261 311.289C195.59 309.705 197.795 310.909 198.884 310.2C198.959 310.147 199.014 310.071 199.041 309.984C199.069 309.897 199.067 309.804 199.036 309.718C198.39 307.526 202.368 309.237 203.61 309.009C203.838 309.009 204.079 308.819 204.041 308.553C204.003 308.286 203.546 307.197 203.546 307.184C203.863 305.917 205.675 306.006 206.498 306.234C207.309 308.895 209.425 311.58 211.731 310.871C211.816 310.844 211.891 310.79 211.944 310.717C211.996 310.644 212.024 310.556 212.022 310.466C211.883 308.591 209.83 306.779 207.677 305.537ZM208.513 307.729C208.437 307.59 208.323 307.362 208.209 307.096C208.853 307.511 209.405 308.054 209.83 308.692C210.274 310.022 208.728 308.096 208.513 307.729Z" fill="#455A64"/>
<path opacity="0.25" d="M178.715 304.169C177.828 302.813 176.181 302.269 174.762 301.635C174.179 301.369 173.495 301.014 172.849 300.66C171.962 299.228 170.771 296.859 172.342 296.606C173.28 296.428 175.091 297.404 176.143 297.708C176.713 297.872 176.586 297.049 176.143 296.897C174.42 296.213 171.075 294.072 170.416 297.011C170.264 297.929 170.401 298.872 170.809 299.709C170.013 299.357 169.145 299.197 168.275 299.241C167.465 299.317 166.768 299.329 166.489 300.292C166.324 300.812 166.552 301.04 166.59 301.432C166.623 301.638 166.719 301.829 166.864 301.979C167.009 302.128 167.197 302.23 167.401 302.269C167.099 302.228 166.794 302.203 166.489 302.193C165.222 302.193 161.928 301.344 161.155 302.864C160.839 303.485 161.561 304.359 161.459 304.587C161.358 304.815 159.027 305.499 158.622 305.753C158.432 305.867 158.558 306.525 158.457 306.589C157.284 306.673 156.107 306.673 154.935 306.589C152.997 306.753 148.195 306.031 148.828 309.009C148.892 309.338 149.158 309.287 149.208 309.819C149.23 310.065 149.281 310.308 149.36 310.542C149.284 310.542 149.158 310.542 148.904 310.947C148.651 311.352 148.068 311.099 147.828 311.403C146.915 312.556 148.322 312.961 147.169 313.671C145.56 314.684 142.202 312.632 140.555 313.772C139.099 314.773 140.999 317.674 138.414 317.725C137.844 317.725 138.174 318.574 138.604 318.612C141.024 318.827 140.758 318.371 141.214 316.407C141.974 313.189 146.763 315.406 149.462 314.659C149.766 314.583 149.791 314.19 149.652 313.962C148.942 312.822 149.766 312.188 150.83 311.694C150.894 311.667 150.951 311.626 150.997 311.574C151.043 311.522 151.077 311.461 151.097 311.394C151.116 311.327 151.12 311.257 151.109 311.189C151.098 311.12 151.072 311.055 151.033 310.998C150.741 310.478 149.766 308.869 150.349 308.122C151.287 307.922 152.241 307.807 153.199 307.78C155.282 307.632 157.371 307.598 159.458 307.678C159.528 307.677 159.597 307.658 159.659 307.624C159.721 307.591 159.774 307.543 159.813 307.485C159.853 307.426 159.878 307.36 159.887 307.29C159.895 307.22 159.887 307.149 159.863 307.083C159.559 306.411 162.27 305.981 162.866 305.816C162.922 305.798 162.974 305.768 163.018 305.729C163.062 305.69 163.097 305.642 163.122 305.589C163.147 305.535 163.161 305.477 163.163 305.418C163.164 305.359 163.154 305.301 163.132 305.246C161.865 302.041 166.59 303.219 168.579 303.536C168.661 303.553 168.745 303.549 168.824 303.524C168.903 303.498 168.974 303.452 169.029 303.39C169.085 303.329 169.123 303.253 169.139 303.172C169.156 303.09 169.151 303.006 169.124 302.927C168.82 301.838 166.426 300.748 169.264 300.394C170.017 300.391 170.76 300.569 171.43 300.913C172.659 302.969 174.356 304.705 176.384 305.981C178.259 307.007 180.159 306.335 178.715 304.169ZM177.841 304.752C178.436 305.55 176.574 304.904 176.346 304.752C175.279 304.112 174.403 303.198 173.812 302.104C174.382 302.421 174.901 302.712 175.281 302.877C176.292 303.252 177.178 303.901 177.841 304.752Z" fill="#455A64"/>
<path opacity="0.25" d="M202.279 281.77C201.924 280.364 201.886 278.831 203.179 278.666C203.799 278.59 203.356 277.741 202.887 277.716C201.139 277.716 200.594 279.186 200.822 281.01C200.124 280.688 199.394 280.441 198.643 280.275C197.515 280.06 196.781 280.034 196.401 281.187C196.173 281.884 196.73 282.328 196.692 282.961C196.692 283.873 197.541 283.493 196.16 283.861C195.623 283.855 195.088 283.795 194.564 283.683C194.141 283.586 193.7 283.602 193.286 283.731C192.872 283.861 192.499 284.098 192.207 284.418C191.346 285.153 193.474 285.495 190.94 285.089C190.301 284.871 189.626 284.776 188.951 284.811C188.026 285.026 187.532 285.292 187.684 286.318C187.748 286.787 188.748 287.395 188.736 287.687C188.736 289.916 186.329 288.029 185.416 287.687C185.357 287.663 185.292 287.653 185.228 287.658C185.164 287.664 185.102 287.683 185.047 287.717C184.992 287.75 184.945 287.795 184.91 287.849C184.875 287.903 184.854 287.965 184.846 288.029C184.846 289.131 185.581 289.524 183.972 289.612C183.782 289.612 182.705 289.017 182.338 289.004C181.299 289.004 180.362 290.347 179.019 290.271C178.651 290.271 178.525 290.575 178.639 290.867C179.006 291.867 179.551 292.476 177.524 293.4C177.524 293.4 175.142 293.109 175.205 293.109C174.622 293.109 174.99 294.046 175.433 294.084C176.358 294.148 179.487 295.465 180.412 294.224C181.096 293.299 179.753 292.235 180.083 291.69C179.867 292.07 181.869 291.145 182.085 291.069C182.584 290.849 183.113 290.703 183.655 290.639C183.934 290.639 184.162 291.095 184.466 291.082C184.77 291.069 185.277 291.272 185.632 291.082C185.987 290.892 186.063 290.423 186.202 290.334C186.557 290.094 185.746 289.815 186.443 289.574C186.949 289.397 187.393 289.916 187.862 290.056C188.622 290.296 189.762 290.854 190.395 290.056C191.232 289.004 189.686 288.269 189.825 287.522C190.155 285.938 192.359 287.142 193.449 286.432C193.523 286.38 193.578 286.304 193.606 286.217C193.633 286.13 193.631 286.037 193.601 285.951C192.955 283.759 196.933 285.47 198.187 285.241C198.402 285.241 198.643 285.051 198.605 284.785C198.567 284.519 198.111 283.43 198.111 283.417C198.428 282.15 200.239 282.239 201.075 282.467C201.874 285.127 203.989 287.813 206.295 287.104C206.381 287.077 206.455 287.022 206.508 286.949C206.56 286.876 206.588 286.788 206.587 286.698C206.473 284.798 204.42 283.012 202.279 281.77ZM203.103 283.962C203.027 283.823 202.912 283.595 202.798 283.328C203.446 283.74 203.999 284.284 204.42 284.925C204.864 286.255 203.318 284.329 203.103 283.962Z" fill="#455A64"/>
</g>
<path d="M138.412 235.892L133.758 239.137C134.874 240.687 135.671 242.443 136.103 244.304C136.534 246.165 136.591 248.093 136.27 249.976C135.949 251.859 135.257 253.659 134.233 255.272C133.21 256.885 131.876 258.278 130.309 259.37C128.742 260.463 126.973 261.232 125.106 261.635C123.239 262.037 121.31 262.064 119.432 261.714C117.555 261.363 115.765 260.643 114.169 259.595C112.572 258.546 111.2 257.191 110.132 255.607L105.477 258.852C108.553 263.142 113.194 266.048 118.397 266.941C123.599 267.835 128.944 266.643 133.274 263.624C137.605 260.605 140.572 256.002 141.533 250.812C142.495 245.622 141.374 240.262 138.412 235.892Z" fill="#FF725E"/>
<g opacity="0.8">
<path opacity="0.8" d="M138.412 235.892L133.758 239.137C134.874 240.687 135.671 242.443 136.103 244.304C136.534 246.165 136.591 248.093 136.27 249.976C135.949 251.859 135.257 253.659 134.233 255.272C133.21 256.885 131.876 258.278 130.309 259.37C128.742 260.463 126.973 261.232 125.106 261.635C123.239 262.037 121.31 262.064 119.432 261.714C117.555 261.363 115.765 260.643 114.169 259.595C112.572 258.546 111.2 257.191 110.132 255.607L105.477 258.852C108.553 263.142 113.194 266.048 118.397 266.941C123.599 267.835 128.944 266.643 133.274 263.624C137.605 260.605 140.572 256.002 141.533 250.812C142.495 245.622 141.374 240.262 138.412 235.892Z" fill="white"/>
</g>
<path d="M142.726 232.884L137.92 236.235C140.791 240.474 141.878 245.674 140.945 250.708C140.012 255.742 137.134 260.207 132.933 263.135C128.733 266.063 123.549 267.219 118.502 266.353C113.456 265.488 108.953 262.669 105.969 258.509L101.16 261.861C105.003 267.373 110.877 271.133 117.492 272.314C124.107 273.494 130.92 271.999 136.432 268.156C141.944 264.313 145.704 258.439 146.884 251.824C148.064 245.209 146.569 238.396 142.726 232.884Z" fill="#FF725E"/>
<g opacity="0.6">
<path opacity="0.6" d="M142.726 232.884L137.92 236.235C140.791 240.474 141.878 245.674 140.945 250.708C140.012 255.742 137.134 260.207 132.933 263.135C128.733 266.063 123.549 267.219 118.502 266.353C113.456 265.488 108.953 262.669 105.969 258.509L101.16 261.861C105.003 267.373 110.877 271.133 117.492 272.314C124.107 273.494 130.92 271.999 136.432 268.156C141.944 264.313 145.704 258.439 146.884 251.824C148.064 245.209 146.569 238.396 142.726 232.884Z" fill="white"/>
</g>
<path d="M147.541 229.528L142.726 232.885C146.569 238.397 148.064 245.209 146.884 251.824C145.703 258.439 141.943 264.314 136.431 268.156C130.919 271.999 124.107 273.494 117.492 272.314C110.877 271.133 105.002 267.374 101.16 261.862L96.3474 265.216C98.6708 268.625 101.647 271.54 105.104 273.791C108.562 276.043 112.431 277.586 116.488 278.332C120.546 279.079 124.711 279.013 128.743 278.139C132.775 277.265 136.594 275.6 139.978 273.241C143.363 270.882 146.245 267.875 148.46 264.394C150.675 260.913 152.177 257.028 152.881 252.962C153.584 248.897 153.474 244.733 152.558 240.71C151.641 236.688 149.936 232.887 147.541 229.528Z" fill="#FF725E"/>
<g opacity="0.4">
<path opacity="0.4" d="M147.541 229.528L142.726 232.885C146.569 238.397 148.064 245.209 146.884 251.824C145.703 258.439 141.943 264.314 136.431 268.156C130.919 271.999 124.107 273.494 117.492 272.314C110.877 271.133 105.002 267.374 101.16 261.862L96.3474 265.216C98.6708 268.625 101.647 271.54 105.104 273.791C108.562 276.043 112.431 277.586 116.488 278.332C120.546 279.079 124.711 279.013 128.743 278.139C132.775 277.265 136.594 275.6 139.978 273.241C143.363 270.882 146.245 267.875 148.46 264.394C150.675 260.913 152.177 257.028 152.881 252.962C153.584 248.897 153.474 244.733 152.558 240.71C151.641 236.688 149.936 232.887 147.541 229.528Z" fill="white"/>
</g>
<path d="M151.603 226.696L146.791 230.05C151.283 236.643 152.992 244.741 151.549 252.587C150.105 260.432 145.625 267.391 139.081 271.953C132.537 276.515 124.457 278.312 116.597 276.952C108.736 275.593 101.729 271.188 97.0975 264.693L92.2853 268.048C94.9791 271.994 98.4284 275.367 102.434 277.972C106.439 280.578 110.921 282.363 115.62 283.226C120.32 284.088 125.144 284.011 129.813 282.998C134.483 281.985 138.905 280.056 142.825 277.324C146.744 274.591 150.083 271.109 152.649 267.078C155.215 263.048 156.956 258.548 157.772 253.841C158.589 249.133 158.464 244.31 157.405 239.651C156.346 234.991 154.374 230.588 151.603 226.696Z" fill="#FF725E"/>
<g opacity="0.3">
<path opacity="0.3" d="M151.603 226.696L146.791 230.05C151.283 236.643 152.992 244.741 151.549 252.587C150.105 260.432 145.625 267.391 139.081 271.953C132.537 276.515 124.457 278.312 116.597 276.952C108.736 275.593 101.729 271.188 97.0975 264.693L92.2853 268.048C94.9791 271.994 98.4284 275.367 102.434 277.972C106.439 280.578 110.921 282.363 115.62 283.226C120.32 284.088 125.144 284.011 129.813 282.998C134.483 281.985 138.905 280.056 142.825 277.324C146.744 274.591 150.083 271.109 152.649 267.078C155.215 263.048 156.956 258.548 157.772 253.841C158.589 249.133 158.464 244.31 157.405 239.651C156.346 234.991 154.374 230.588 151.603 226.696Z" fill="white"/>
</g>
<path d="M156.104 225.334L151.452 228.577C156.659 236.207 158.644 245.585 156.976 254.671C155.307 263.757 150.12 271.818 142.542 277.101C134.964 282.384 125.606 284.462 116.504 282.885C107.402 281.307 99.2899 276.201 93.9315 268.676L89.2796 271.919C92.3156 276.361 96.2018 280.157 100.714 283.089C105.225 286.021 110.273 288.03 115.566 289C120.858 289.969 126.29 289.881 131.549 288.74C136.807 287.598 141.787 285.426 146.201 282.349C150.614 279.272 154.375 275.351 157.265 270.812C160.155 266.273 162.117 261.207 163.038 255.906C163.958 250.604 163.82 245.173 162.63 239.926C161.439 234.679 159.221 229.719 156.104 225.334Z" fill="#FF725E"/>
<g opacity="0.1">
<path opacity="0.1" d="M186.242 205.011L181.59 208.254C186.798 215.885 188.783 225.262 187.114 234.348C185.446 243.435 180.259 251.495 172.681 256.778C165.102 262.061 155.745 264.14 146.643 262.562C137.54 260.985 129.429 255.878 124.07 248.353L119.418 251.596C122.454 256.038 126.34 259.835 130.852 262.767C135.364 265.698 140.412 267.707 145.704 268.677C150.997 269.647 156.429 269.558 161.687 268.417C166.945 267.275 171.925 265.103 176.339 262.026C180.753 258.949 184.514 255.028 187.404 250.489C190.294 245.951 192.256 240.884 193.176 235.583C194.097 230.282 193.958 224.851 192.768 219.603C191.578 214.356 189.36 209.396 186.242 205.011Z" fill="white"/>
</g>
<path d="M159.845 220.95L155.19 224.195C158.292 228.559 160.5 233.493 161.684 238.715C162.868 243.936 163.006 249.34 162.09 254.615C161.174 259.89 159.222 264.932 156.346 269.448C153.471 273.964 149.729 277.866 145.337 280.928C140.945 283.989 135.989 286.151 130.757 287.287C125.525 288.422 120.12 288.51 114.854 287.545C109.587 286.58 104.564 284.581 100.075 281.664C95.5858 278.747 91.719 274.969 88.698 270.548L84.0433 273.793C98.6116 294.691 127.465 299.84 148.363 285.272C169.261 270.704 174.413 241.848 159.845 220.95Z" fill="#FF725E"/>
<path d="M91.129 288.809C92.666 289.716 94.4221 290.185 96.2068 290.164C97.9914 290.144 99.7363 289.635 101.252 288.693C102.768 287.751 103.997 286.412 104.806 284.821C105.615 283.23 105.972 281.448 105.839 279.668C107.276 280.469 108.95 280.731 110.562 280.408C112.174 280.084 113.618 279.196 114.634 277.903C115.649 276.609 116.17 274.996 116.103 273.354C116.036 271.711 115.384 270.146 114.266 268.94C115.47 268.877 116.629 268.464 117.601 267.751C118.573 267.038 119.316 266.057 119.738 264.927C120.16 263.798 120.243 262.57 119.976 261.395C119.71 260.219 119.106 259.147 118.239 258.31C119.197 257.841 120.013 257.126 120.601 256.236C121.19 255.347 121.53 254.316 121.586 253.251C121.642 252.186 121.413 251.126 120.922 250.179C120.43 249.233 119.695 248.435 118.791 247.868C106.094 255.869 93.733 264.377 81.7086 273.392C81.3021 273.639 80.9794 274.004 80.7826 274.437C80.615 274.941 80.8034 275.486 81.0083 275.981C83.1876 281.353 86.8613 285.988 91.594 289.335" fill="white"/>
<path d="M171.615 224.537C171.882 226.005 171.743 227.518 171.211 228.911C170.68 230.305 169.777 231.527 168.6 232.443C167.423 233.36 166.018 233.937 164.536 234.112C163.055 234.286 161.554 234.051 160.197 233.433C160.407 234.791 160.127 236.179 159.406 237.349C158.686 238.519 157.571 239.393 156.264 239.815C154.956 240.237 153.541 240.179 152.273 239.652C151.004 239.125 149.965 238.162 149.342 236.938C148.945 237.864 148.286 238.655 147.446 239.212C146.606 239.769 145.621 240.068 144.613 240.073C143.605 240.078 142.617 239.788 141.772 239.24C140.926 238.691 140.26 237.907 139.854 236.984C139.209 237.6 138.412 238.033 137.544 238.238C136.676 238.442 135.769 238.411 134.917 238.147C134.065 237.883 133.299 237.396 132.699 236.736C132.099 236.077 131.686 235.269 131.503 234.396C141.448 226.748 151.696 219.513 162.246 212.691C162.557 212.443 162.936 212.295 163.332 212.266C163.774 212.333 164.178 212.552 164.475 212.886C168.058 216.15 170.629 220.374 171.883 225.056" fill="white"/>
<path d="M187.911 247.314C189.001 248.392 189.282 251.12 188.795 252.572C188.542 253.299 188.094 253.943 187.502 254.435C186.909 254.927 186.193 255.247 185.431 255.361C185.96 256.001 186.283 256.785 186.359 257.611C186.435 258.437 186.26 259.267 185.857 259.993C185.455 260.718 184.843 261.305 184.102 261.678C183.361 262.051 182.524 262.191 181.702 262.082C182.593 264.246 182.556 266.906 181.122 268.755C179.688 270.605 176.697 271.217 174.921 269.696C174.133 272.351 170.829 273.937 168.252 272.895C167.884 272.691 167.476 272.57 167.057 272.54C166.324 272.575 165.836 273.266 165.318 273.779C164.522 274.521 163.49 274.958 162.403 275.014C161.316 275.07 160.245 274.741 159.377 274.085C158.052 277.042 150.587 277.236 148.324 274.921L187.911 247.314Z" fill="#FF725E"/>
<g opacity="0.7">
<path opacity="0.7" d="M187.911 247.314C189.001 248.392 189.282 251.12 188.795 252.572C188.542 253.299 188.094 253.943 187.502 254.435C186.909 254.927 186.193 255.247 185.431 255.361C185.96 256.001 186.283 256.785 186.359 257.611C186.435 258.437 186.26 259.267 185.857 259.993C185.455 260.718 184.843 261.305 184.102 261.678C183.361 262.051 182.524 262.191 181.702 262.082C182.593 264.246 182.556 266.906 181.122 268.755C179.688 270.605 176.697 271.217 174.921 269.696C174.133 272.351 170.829 273.937 168.252 272.895C167.884 272.691 167.476 272.57 167.057 272.54C166.324 272.575 165.836 273.266 165.318 273.779C164.522 274.521 163.49 274.958 162.403 275.014C161.316 275.07 160.245 274.741 159.377 274.085C158.052 277.042 150.587 277.236 148.324 274.921L187.911 247.314Z" fill="white"/>
</g>
<path d="M239.346 252.759C240.435 253.837 240.717 256.564 240.23 258.016C239.976 258.743 239.529 259.387 238.936 259.879C238.343 260.371 237.628 260.691 236.866 260.806C237.394 261.445 237.717 262.229 237.793 263.055C237.869 263.882 237.694 264.711 237.292 265.437C236.889 266.162 236.278 266.749 235.536 267.122C234.795 267.495 233.959 267.635 233.137 267.526C234.027 269.69 233.99 272.35 232.556 274.2C231.123 276.049 228.132 276.661 226.356 275.141C225.567 277.795 222.264 279.381 219.686 278.339C219.319 278.135 218.911 278.014 218.491 277.984C217.759 278.019 217.271 278.711 216.752 279.224C215.956 279.965 214.924 280.402 213.838 280.458C212.751 280.514 211.68 280.185 210.812 279.529C209.487 282.486 202.022 282.68 199.758 280.365L239.346 252.759Z" fill="#C85241"/>
<g opacity="0.7">
<path opacity="0.7" d="M239.346 252.759C240.435 253.837 240.717 256.564 240.23 258.016C239.976 258.743 239.529 259.387 238.936 259.879C238.343 260.371 237.628 260.691 236.866 260.806C237.394 261.445 237.717 262.229 237.793 263.055C237.869 263.882 237.694 264.711 237.292 265.437C236.889 266.162 236.278 266.749 235.536 267.122C234.795 267.495 233.959 267.635 233.137 267.526C234.027 269.69 233.99 272.35 232.556 274.2C231.123 276.049 228.132 276.661 226.356 275.141C225.567 277.795 222.264 279.381 219.686 278.339C219.319 278.135 218.911 278.014 218.491 277.984C217.759 278.019 217.271 278.711 216.752 279.224C215.956 279.965 214.924 280.402 213.838 280.458C212.751 280.514 211.68 280.185 210.812 279.529C209.487 282.486 202.022 282.68 199.758 280.365L239.346 252.759Z" fill="white"/>
</g>
<path d="M258.136 293.024C259.225 294.102 259.507 296.829 259.02 298.281C258.766 299.008 258.319 299.652 257.726 300.144C257.134 300.636 256.418 300.956 255.656 301.071C256.184 301.71 256.507 302.494 256.583 303.32C256.659 304.147 256.485 304.976 256.082 305.702C255.679 306.427 255.068 307.014 254.326 307.387C253.585 307.76 252.749 307.9 251.927 307.791C252.817 309.955 252.78 312.615 251.347 314.465C249.913 316.314 246.922 316.926 245.146 315.406C244.357 318.06 241.054 319.646 238.477 318.604C238.109 318.4 237.701 318.279 237.281 318.249C236.549 318.284 236.061 318.976 235.542 319.489C234.746 320.23 233.714 320.667 232.628 320.723C231.541 320.779 230.47 320.45 229.602 319.794C228.277 322.751 220.812 322.945 218.548 320.63L258.136 293.024Z" fill="#984236"/>
<g opacity="0.7">
<path opacity="0.7" d="M258.136 293.024C259.225 294.102 259.507 296.829 259.02 298.281C258.766 299.008 258.319 299.652 257.726 300.144C257.134 300.636 256.418 300.956 255.656 301.071C256.184 301.71 256.507 302.494 256.583 303.32C256.659 304.147 256.485 304.976 256.082 305.702C255.679 306.427 255.068 307.014 254.326 307.387C253.585 307.76 252.749 307.9 251.927 307.791C252.817 309.955 252.78 312.615 251.347 314.465C249.913 316.314 246.922 316.926 245.146 315.406C244.357 318.06 241.054 319.646 238.477 318.604C238.109 318.4 237.701 318.279 237.281 318.249C236.549 318.284 236.061 318.976 235.542 319.489C234.746 320.23 233.714 320.667 232.628 320.723C231.541 320.779 230.47 320.45 229.602 319.794C228.277 322.751 220.812 322.945 218.548 320.63L258.136 293.024Z" fill="white"/>
</g>
<path d="M127.801 282.35C128.361 282.904 128.505 284.305 128.255 285.05C128.125 285.424 127.895 285.755 127.591 286.007C127.286 286.26 126.919 286.425 126.527 286.483C126.799 286.812 126.965 287.215 127.004 287.639C127.043 288.063 126.953 288.49 126.746 288.862C126.539 289.235 126.225 289.536 125.844 289.728C125.464 289.919 125.034 289.991 124.612 289.935C125.069 291.047 125.05 292.413 124.314 293.363C123.577 294.313 122.041 294.628 121.129 293.847C120.724 295.21 119.027 296.025 117.703 295.49C117.514 295.385 117.305 295.323 117.089 295.307C116.713 295.325 116.462 295.68 116.196 295.944C115.787 296.325 115.257 296.549 114.699 296.578C114.141 296.607 113.59 296.438 113.144 296.101C112.464 297.62 108.63 297.719 107.467 296.53L127.801 282.35Z" fill="#FF725E"/>
<g opacity="0.7">
<path opacity="0.7" d="M127.801 282.35C128.361 282.904 128.505 284.305 128.255 285.05C128.125 285.424 127.895 285.755 127.591 286.007C127.286 286.26 126.919 286.425 126.527 286.483C126.799 286.812 126.965 287.215 127.004 287.639C127.043 288.063 126.953 288.49 126.746 288.862C126.539 289.235 126.225 289.536 125.844 289.728C125.464 289.919 125.034 289.991 124.612 289.935C125.069 291.047 125.05 292.413 124.314 293.363C123.577 294.313 122.041 294.628 121.129 293.847C120.724 295.21 119.027 296.025 117.703 295.49C117.514 295.385 117.305 295.323 117.089 295.307C116.713 295.325 116.462 295.68 116.196 295.944C115.787 296.325 115.257 296.549 114.699 296.578C114.141 296.607 113.59 296.438 113.144 296.101C112.464 297.62 108.63 297.719 107.467 296.53L127.801 282.35Z" fill="white"/>
</g>
<path d="M179.237 287.794C179.796 288.348 179.941 289.749 179.691 290.495C179.561 290.868 179.331 291.199 179.026 291.452C178.722 291.704 178.354 291.869 177.963 291.928C178.234 292.256 178.4 292.659 178.439 293.083C178.478 293.508 178.388 293.934 178.182 294.307C177.975 294.679 177.661 294.981 177.28 295.172C176.899 295.364 176.47 295.436 176.047 295.379C176.505 296.491 176.486 297.858 175.749 298.808C175.013 299.758 173.477 300.072 172.564 299.291C172.159 300.654 170.463 301.469 169.139 300.934C168.95 300.829 168.74 300.767 168.525 300.752C168.149 300.769 167.898 301.125 167.631 301.388C167.223 301.769 166.692 301.994 166.134 302.022C165.576 302.051 165.026 301.882 164.58 301.545C163.9 303.064 160.065 303.164 158.902 301.974L179.237 287.794Z" fill="#C85241"/>
<g opacity="0.7">
<path opacity="0.7" d="M179.237 287.794C179.796 288.348 179.941 289.749 179.691 290.495C179.561 290.868 179.331 291.199 179.026 291.452C178.722 291.704 178.354 291.869 177.963 291.928C178.234 292.256 178.4 292.659 178.439 293.083C178.478 293.508 178.388 293.934 178.182 294.307C177.975 294.679 177.661 294.981 177.28 295.172C176.899 295.364 176.47 295.436 176.047 295.379C176.505 296.491 176.486 297.858 175.749 298.808C175.013 299.758 173.477 300.072 172.564 299.291C172.159 300.654 170.463 301.469 169.139 300.934C168.95 300.829 168.74 300.767 168.525 300.752C168.149 300.769 167.898 301.125 167.631 301.388C167.223 301.769 166.692 301.994 166.134 302.022C165.576 302.051 165.026 301.882 164.58 301.545C163.9 303.064 160.065 303.164 158.902 301.974L179.237 287.794Z" fill="white"/>
</g>
<path d="M198.027 328.059C198.586 328.613 198.731 330.014 198.481 330.76C198.351 331.133 198.121 331.464 197.816 331.717C197.512 331.969 197.144 332.134 196.753 332.193C197.024 332.521 197.19 332.924 197.229 333.348C197.268 333.773 197.179 334.199 196.972 334.571C196.765 334.944 196.451 335.246 196.07 335.437C195.689 335.628 195.26 335.701 194.837 335.644C195.295 336.756 195.276 338.122 194.539 339.072C193.803 340.022 192.267 340.337 191.354 339.556C190.949 340.919 189.253 341.734 187.929 341.199C187.74 341.094 187.53 341.032 187.315 341.017C186.939 341.034 186.688 341.39 186.421 341.653C186.013 342.034 185.482 342.259 184.924 342.287C184.366 342.316 183.816 342.147 183.37 341.81C182.69 343.329 178.855 343.428 177.693 342.239L198.027 328.059Z" fill="#984236"/>
<g opacity="0.7">
<path opacity="0.7" d="M198.027 328.059C198.586 328.613 198.731 330.014 198.481 330.76C198.351 331.133 198.121 331.464 197.816 331.717C197.512 331.969 197.144 332.134 196.753 332.193C197.024 332.521 197.19 332.924 197.229 333.348C197.268 333.773 197.179 334.199 196.972 334.571C196.765 334.944 196.451 335.246 196.07 335.437C195.689 335.628 195.26 335.701 194.837 335.644C195.295 336.756 195.276 338.122 194.539 339.072C193.803 340.022 192.267 340.337 191.354 339.556C190.949 340.919 189.253 341.734 187.929 341.199C187.74 341.094 187.53 341.032 187.315 341.017C186.939 341.034 186.688 341.39 186.421 341.653C186.013 342.034 185.482 342.259 184.924 342.287C184.366 342.316 183.816 342.147 183.37 341.81C182.69 343.329 178.855 343.428 177.693 342.239L198.027 328.059Z" fill="white"/>
</g>
<path d="M154.111 180.732C154.092 180.705 135.221 193.83 111.966 210.042C88.7112 226.253 69.8645 239.421 69.8837 239.449C69.9029 239.477 88.7703 226.354 112.032 210.137C135.294 193.92 154.133 180.763 154.111 180.732Z" fill="#263238"/>
<path d="M82.1699 52.7833C86.5686 58.041 93.8369 65.1394 97.9619 70.3122C100.143 73.0198 101.323 76.3972 101.303 79.8742C101.303 82.4511 100.567 84.5939 98.0468 83.4989C96.2251 82.706 95.064 81.7621 92.3833 79.1474C89.9951 76.7875 78.4414 65.9323 78.4414 65.9323C78.4414 65.9323 76.2703 52.6323 72.7023 51.5468C69.1342 50.4612 66.0947 44.7693 66.0947 44.7693C71.9471 44.2313 76.5913 46.1192 82.1699 52.7833Z" fill="#F28F8F"/>
<path d="M122.382 190.201L143.026 220.407C143.157 220.598 143.345 220.743 143.563 220.822C143.782 220.902 144.019 220.911 144.243 220.848C144.466 220.786 144.665 220.655 144.81 220.474C144.956 220.294 145.042 220.072 145.055 219.84L147.028 183.093L122.382 190.201Z" fill="#FFA8A7"/>
<path d="M145.055 219.85C145.042 220.082 144.956 220.303 144.81 220.484C144.665 220.665 144.466 220.795 144.243 220.858C144.019 220.92 143.782 220.911 143.563 220.832C143.345 220.753 143.157 220.608 143.026 220.416L138.995 214.517C140.1 214.767 141.253 214.708 142.327 214.347C143.401 213.986 144.354 213.336 145.083 212.468L145.489 211.987L145.055 219.85Z" fill="#263238"/>
<path d="M105.59 34.3954L106.534 37.6615L107.648 41.5882L147.028 183.093C145.098 186.741 141.856 189.52 137.957 190.871C132.143 193.146 125.46 192.882 122.363 190.192L83.1903 49.7344L81.0947 42.1829C82.7655 47.0064 107.157 39.2284 105.59 34.3954Z" fill="#FF725E"/>
<path d="M109.092 46.8082L111.112 54.0953C111.773 56.1909 107.638 58.815 102.617 60.7029C95.8959 63.2609 87.5138 64.5824 86.6359 61.8167L85.1067 56.5024L84.6064 54.6145C85.4749 57.3897 93.857 56.0681 100.578 53.5101C105.43 51.6222 109.432 49.1774 109.139 47.1291C109.167 47.0201 109.15 46.9047 109.092 46.8082Z" fill="#EBEBEB"/>
<path d="M109.582 48.6299C111.111 53.4911 86.6159 61.2125 85.0395 56.3512L82.9912 49.0641C84.5298 53.9159 109.015 46.2323 107.533 41.3427L109.582 48.6299Z" fill="#FF725E"/>
<path d="M105.589 34.3954L107.609 41.5882C109.148 46.3079 85.5778 54.0387 83.2274 49.7344C83.175 49.6532 83.1367 49.5639 83.1141 49.4701L81.1318 42.2112C82.7648 47.0064 107.156 39.2284 105.589 34.3954Z" fill="#EBEBEB"/>
<path opacity="0.1" d="M83.2274 49.7343L81.1318 42.1829C81.8681 44.3445 87.258 43.948 92.7988 42.4094L133.388 192.108L143.073 220.426L122.429 190.22L83.2274 49.7343Z" fill="black"/>
<path d="M96.9991 3.84976L105.551 34.3954C106.221 36.4626 102.153 39.1151 97.1407 41.003C90.4199 43.5799 82.0378 44.9675 81.0939 42.2206L72.8911 12.7982C70.4085 6.10576 82.5475 -0.473454 90.6465 0.0268307C93.6765 0.196739 96.1118 1.34834 96.9991 3.84976Z" fill="#F28F8F"/>
<path d="M61.2059 39.9364C56.6271 39.9364 52.2358 38.1175 48.9981 34.8797C45.7603 31.642 43.9414 27.2507 43.9414 22.6719V21.7279C43.9414 17.8476 45.4829 14.1261 48.2267 11.3823C50.9705 8.63845 54.692 7.09698 58.5724 7.09698H63.8395C67.7199 7.09698 71.4413 8.63845 74.1852 11.3823C76.929 14.1261 78.4705 17.8476 78.4705 21.7279V22.6719C78.4705 27.2507 76.6515 31.642 73.4138 34.8797C70.1761 38.1175 65.7848 39.9364 61.2059 39.9364Z" fill="#263238"/>
<path d="M36.9277 41.6922C39.0081 41.6922 41.0033 40.8658 42.4743 39.3947C43.9454 37.9237 44.7718 35.9285 44.7718 33.8481V18.2638C42.6931 18.2638 40.6993 19.0889 39.2285 20.5579C37.7578 22.0269 36.9302 24.0197 36.9277 26.0984V41.6922Z" fill="#263238"/>
<path d="M78.9708 210.722C80.9884 212.835 83.2007 214.754 85.5784 216.452C85.9637 216.687 86.2874 217.01 86.5223 217.396C86.8338 218.038 87.3152 219.642 84.3701 220.671C82.8808 221.186 81.298 221.375 79.7294 221.223C78.1608 221.072 76.6432 220.584 75.2801 219.793C72.8636 218.283 72.7503 215.13 70.466 213.337C68.7764 212.006 66.6903 211.666 65.3027 209.92C64.3588 208.711 64.5947 207.088 65.095 205.106C65.6331 202.925 65.8879 201.283 66.6053 201.453L66.4826 202.453C67.4265 203.888 72.0424 204.341 74.119 203.322C75.6097 205.869 77.229 208.339 78.9708 210.722Z" fill="#263238"/>
<path d="M81.0191 212.752C80.3112 212.11 79.6316 211.449 78.9708 210.722C77.6017 208.93 76.3409 207.058 75.1951 205.115C74.3088 203.913 73.7494 202.501 73.5715 201.018C73.5243 199.131 73.7037 195.666 73.7037 195.666L66.7941 195.204L66.4543 202.444C66.2749 204.086 67.6342 205.549 70.0412 207.617C72.4482 209.684 75.4971 214.517 77.6682 215.734C79.8392 216.952 81.4439 216.905 82.3312 216.282C83.2185 215.659 83.3601 215.149 81.0191 212.752Z" fill="#FFA8A7"/>
<path d="M55.9865 217.622C58.0019 219.738 60.2144 221.656 62.594 223.352C62.9774 223.589 63.3005 223.913 63.5379 224.296C63.8494 224.938 64.3308 226.543 61.3858 227.571C59.8965 228.087 58.3136 228.275 56.745 228.123C55.1764 227.972 53.6589 227.484 52.2957 226.694C49.8698 225.183 49.7659 222.03 47.4816 220.237C45.792 218.906 43.7059 218.566 42.3183 216.82C41.3744 215.612 41.6104 213.988 42.1107 212.006C42.6487 209.825 42.8941 208.183 43.6209 208.353L43.4982 209.353C44.4422 210.788 49.058 211.241 51.1347 210.222C52.6219 212.772 54.2413 215.242 55.9865 217.622Z" fill="#263238"/>
<path d="M58.025 219.652C57.3265 219.01 56.6374 218.349 55.9861 217.622C54.6149 215.832 53.354 213.959 52.2104 212.015C51.3549 210.773 50.8021 209.347 50.5962 207.853C50.4641 206.163 50.5962 202.642 50.5962 202.642H43.6867L43.5168 209.325C43.3374 210.968 44.6967 212.431 47.1037 214.498C49.5107 216.565 52.5502 221.398 54.7307 222.616C56.9112 223.833 58.4592 223.786 59.3843 223.163C60.3093 222.54 60.3754 222.049 58.025 219.652Z" fill="#FFA8A7"/>
<path d="M43.5353 90.8048C37.5225 103.944 44.366 153.775 44.366 153.775C44.1866 155.908 42.3082 159.221 42.0817 165.734C41.7985 174.097 43.2899 204.974 43.2899 204.974C44.4971 205.617 45.8391 205.967 47.2069 205.995C48.5747 206.023 49.9298 205.728 51.1623 205.134C51.1623 205.134 58.289 163.214 59.6577 152.189C60.8659 142.57 63.1974 119.944 63.1974 119.944L67.9926 152.142C67.9926 152.142 65.5289 157.513 65.4062 162.364C65.2269 168.878 66.1897 199.112 66.1897 199.112C66.1897 199.112 69.1064 200.131 74.1942 199.385C74.1942 199.385 81.4436 158.475 82.1233 150.669C82.5292 146.006 79.0461 88.832 79.0461 88.832L43.5353 90.8048Z" fill="#37474F"/>
<path d="M63.2168 119.944L65.1707 109.202C65.1707 109.202 73.4018 107.475 77.1776 103.963C77.1776 103.963 73.2414 108.862 67.4079 110.457L65.2085 119.897L67.3795 147.979L63.2168 119.944Z" fill="#263238"/>
<path d="M55.2871 45.0998C50.0011 45.8266 47.1693 46.9877 45.4702 51.9527C44.3564 55.1999 44.6584 59.9762 45.7817 63.2233L50.3881 76.7027C47.6036 81.1435 45.306 85.8716 43.5352 90.805C57.0334 98.3565 75.0059 94.3259 79.0648 88.8322C79.2347 87.6712 78.1209 82.0359 78.4701 76.0608C78.8194 69.6798 79.8388 62.3643 78.8382 58.4281C76.9504 51.1126 71.872 46.3363 66.1235 44.7977L55.2871 45.0998Z" fill="#F5F5F5"/>
<path d="M72.797 14.0728C74.6188 15.1488 76.8748 19.7364 76.6483 29.3456C76.4595 37.5012 73.8165 39.5117 72.495 40.0875C71.1735 40.6633 68.606 40.3141 66.1234 39.9082V44.7978C66.1234 44.7978 69.5593 48.7906 69.3422 51.0277C69.1251 53.2648 64.3771 53.8029 61.1678 51.613C59.0844 50.1237 57.2952 48.261 55.8912 46.1193V34.2635C55.8912 34.2635 54.211 36.51 51.4641 34.6788C48.7173 32.8476 48.6323 28.345 50.2087 26.7214C51.7851 25.0979 55.2493 25.6171 55.8723 27.8542C55.8723 27.8542 59.8368 28.0052 65.1134 25.0979C67.1718 23.995 68.9406 22.4215 70.2758 20.5056C71.611 18.5898 72.4748 16.3857 72.797 14.0728Z" fill="#FFA8A7"/>
<path d="M67.5489 27.2971C67.5605 27.4323 67.5453 27.5684 67.5041 27.6977C67.4629 27.827 67.3965 27.9469 67.3087 28.0504C67.221 28.154 67.1136 28.2391 66.9929 28.301C66.8721 28.3628 66.7403 28.4002 66.605 28.4109C66.3925 28.4352 66.1777 28.3951 65.9883 28.2958C65.7989 28.1965 65.6438 28.0426 65.543 27.854C65.4421 27.6654 65.4003 27.4509 65.423 27.2383C65.4456 27.0256 65.5317 26.8247 65.6699 26.6616C65.8082 26.4984 65.9922 26.3806 66.1983 26.3234C66.4043 26.2662 66.6228 26.2723 66.8254 26.3408C67.0279 26.4093 67.2052 26.5371 67.3343 26.7076C67.4633 26.8781 67.5381 27.0835 67.5489 27.2971Z" fill="#263238"/>
<path d="M67.823 34.2066L70.2111 34.9712C70.1678 35.1302 70.0929 35.2789 69.991 35.4083C69.889 35.5378 69.7619 35.6453 69.6175 35.7246C69.473 35.8039 69.314 35.8533 69.15 35.8698C68.9861 35.8863 68.8204 35.8696 68.6631 35.8207C68.3415 35.7125 68.0744 35.4839 67.9177 35.183C67.7611 34.882 67.7271 34.5321 67.823 34.2066Z" fill="#F28F8F"/>
<path d="M75.9595 24.1537L73.8828 22.7189C73.969 22.5791 74.0827 22.4582 74.2171 22.3638C74.3516 22.2694 74.5038 22.2034 74.6646 22.1699C74.8254 22.1363 74.9913 22.1358 75.1523 22.1686C75.3133 22.2013 75.4659 22.2665 75.6008 22.3602C75.8784 22.5567 76.0703 22.852 76.137 23.1856C76.2037 23.5191 76.1402 23.8655 75.9595 24.1537Z" fill="#263238"/>
<path d="M75.4786 26.5608C75.4803 26.7626 75.4225 26.9605 75.3125 27.1297C75.2026 27.299 75.0453 27.4322 74.8602 27.5127C74.6751 27.5932 74.4704 27.6174 74.2716 27.5825C74.0728 27.5475 73.8887 27.4549 73.7422 27.3161C73.5956 27.1773 73.4932 26.9984 73.4475 26.8018C73.4019 26.6052 73.4151 26.3995 73.4855 26.2103C73.5559 26.0212 73.6804 25.8569 73.8434 25.7379C74.0065 25.619 74.2009 25.5506 74.4025 25.5413C74.5402 25.5376 74.6772 25.561 74.8057 25.6102C74.9343 25.6594 75.0519 25.7334 75.1518 25.8281C75.2518 25.9228 75.3321 26.0362 75.3881 26.1619C75.4442 26.2876 75.475 26.4232 75.4786 26.5608Z" fill="#263238"/>
<path d="M70.6455 25.9756L70.806 32.1395L74.0531 31.1389L70.6455 25.9756Z" fill="#F28F8F"/>
<path d="M66.1236 39.9078C63.4995 39.5586 58.1096 38.02 57.2695 35.8773C57.6072 36.9546 58.2658 37.9031 59.1574 38.5958C60.7715 39.9834 66.1236 41.5314 66.1236 41.5314V39.9078Z" fill="#F28F8F"/>
<path d="M107.6 84.8204C105.995 85.4245 104.39 85.4623 102.201 86.5006C100.759 87.3239 99.1396 87.784 97.4809 87.841C95.3382 87.9448 89.3253 85.3868 84.0487 82.9231C78.336 80.1498 73.1388 76.4212 68.6815 71.898C64.2011 66.5854 60.2227 60.8691 56.7974 54.8222C54.9095 51.6034 53.0217 46.9215 50.0105 46.3268C44.8189 46.8743 42.7045 55.9172 46.0743 61.5053C49.4442 67.0934 55.3909 74.4372 61.7814 80.6105C64.8775 83.6122 70.5505 86.8593 78.6683 90.3424C83.9782 92.6537 89.4601 94.5473 95.0644 96.006C96.6974 96.4308 97.8396 97.0349 100.898 98.0827C102.134 98.5867 103.438 98.9048 104.768 99.0266C106.421 99.0909 108.074 98.916 109.676 98.5074C111.71 97.9954 113.569 96.9456 115.057 95.468C115.865 94.6508 116.47 93.6548 116.822 92.5607C117.182 91.459 117.142 90.2658 116.709 89.1908C116.626 88.972 116.49 88.7773 116.312 88.6245C115.939 88.4256 115.504 88.375 115.095 88.4829C112.746 88.9837 110.374 89.3649 107.987 89.625C106.005 89.7006 104.608 89.4834 104.853 89.172C105.098 88.8605 106.269 88.8982 107.76 88.0487C109.252 87.1991 110.12 85.5944 109.601 84.8204C109.082 84.0464 109.205 84.2163 107.6 84.8204Z" fill="#FFA8A7"/>
<path d="M111.97 63.0154C111.97 63.0154 109.818 61.3069 105.74 61.977C103.767 62.3074 104.522 69.7739 110.875 71.86C115.01 73.2193 115.85 72.5208 117.181 75.9189C117.181 75.9189 119.682 75.3998 119.068 71.5957C118.408 67.6834 116.665 64.0342 114.037 61.0614C112.215 58.9093 112.093 57.0969 111.205 57.7105C110.318 58.324 110.809 60.1836 110.809 60.1836L111.97 63.0154Z" fill="#FFA8A7"/>
</svg>
