<svg width="48" height="67" viewBox="0 0 48 67" fill="none" xmlns="http://www.w3.org/2000/svg">
<path d="M42.8713 7.48573C42.8713 7.48573 40.1385 5.40533 36.1991 12.0139C32.2597 18.6225 30.6793 22.479 30.6793 22.479C30.6793 22.479 29.6638 23.848 28.7479 22.8325C27.8321 21.8169 26.6528 19.0816 24.9479 19.4512C23.243 19.8208 22.4831 21.7326 22.6256 24.5959C22.7681 27.4591 22.8509 33.7594 22.8548 34.3247C22.8586 34.8901 22.4899 35.6828 21.7516 35.099C21.0133 34.5152 16.8945 29.273 14.5275 31.3798C12.1606 33.4867 13.873 41.4069 14.0373 42.2741C14.2016 43.1412 14.0173 43.4983 13.597 43.6838C13.1768 43.8693 11.9573 41.9731 10.7264 40.5221C9.49546 39.071 7.81554 37.6213 6.56581 38.9534C5.31607 40.2855 4.53731 46.0904 9.46401 55.9328L12.0446 60.3406L17.1751 60.3973C28.1699 59.8443 32.8516 56.3227 33.3877 54.5575C33.9239 52.7922 31.8164 52.053 29.9618 51.6939C28.1072 51.3347 25.8477 51.2027 25.8027 50.7454C25.7576 50.2881 25.9734 49.9496 26.818 49.6584C27.6626 49.3672 35.3967 46.9707 36.0599 43.8695C36.7232 40.7684 30.1334 39.7666 29.2638 39.4075C28.3942 39.0485 28.9059 38.3351 29.3989 38.0601C29.8918 37.7851 35.4181 34.7539 37.9801 33.4725C40.5422 32.191 41.8561 30.642 41.3228 28.9118C40.7896 27.1816 37.8368 27.5797 36.5087 27.27C35.1805 26.9603 35.878 25.4 35.878 25.4C35.878 25.4 38.4606 22.1268 42.277 15.4494C46.0934 8.77207 42.8075 7.46685 42.8075 7.46685" fill="#FF7360"/>
<path d="M11.1389 61.2291C13.9723 56.342 19.1215 47.7235 23.5132 40.3053C27.9049 32.8872 31.8587 26.1672 34.7249 21.2945C36.1391 18.8595 37.2913 16.888 38.0864 15.5139C38.4814 14.8353 38.7903 14.307 39.0149 13.9387C39.1183 13.7612 39.1994 13.6279 39.2513 13.5462C39.3032 13.4644 39.3379 13.4099 39.3379 13.4099C39.3172 13.4598 39.2936 13.5084 39.2671 13.5555C39.2101 13.6542 39.1363 13.7943 39.0434 13.9518L38.1532 15.5383C37.3751 16.9174 36.2344 18.8969 34.8305 21.3442C31.9958 26.2355 28.0521 32.9677 23.649 40.3779C19.2458 47.7881 14.0808 56.3972 11.2316 61.275" fill="#FF725E"/>
<path d="M26.426 23.3804C26.426 23.3804 26.4779 23.5021 26.5336 23.7359C26.5892 23.9697 26.6678 24.2982 26.7539 24.7261C26.9295 25.555 27.1522 26.6938 27.3618 27.986C27.5714 29.2782 27.7565 30.3874 27.897 31.2568L28.0706 32.2331C28.1009 32.3528 28.1173 32.4756 28.1196 32.5991C28.0726 32.4842 28.0366 32.3652 28.012 32.2436C27.9551 32.014 27.8791 31.677 27.7959 31.2547C27.6258 30.4228 27.4265 29.2677 27.2131 27.9883L26.6528 24.7239L26.4792 23.7476C26.4485 23.6274 26.4306 23.5043 26.426 23.3804Z" fill="#FF725E"/>
<path d="M28.5826 32.7221C28.5714 32.6818 30.9311 32.1313 33.8452 31.5044C36.7592 30.8774 39.1378 30.388 39.1477 30.4326C39.1577 30.4772 36.7993 31.0234 33.881 31.6491C30.9626 32.2747 28.5926 32.7666 28.5826 32.7221Z" fill="#FF725E"/>
<path d="M21.3203 43.8091C21.4474 43.7949 21.5757 43.7971 21.7022 43.8158L22.7219 43.8862C23.587 43.948 24.7783 44.0322 26.0982 44.0574C27.418 44.0826 28.6138 44.0895 29.482 44.0782L30.5073 44.0671C30.6324 44.0551 30.7586 44.0598 30.8825 44.081C30.7595 44.1087 30.634 44.1242 30.508 44.1274C30.2659 44.1483 29.9173 44.17 29.4858 44.1903C28.6186 44.2297 27.4183 44.2538 26.0924 44.2176C24.7666 44.1814 23.5735 44.0873 22.7117 43.9988C22.2638 43.9496 21.9328 43.9117 21.6931 43.8778C21.5669 43.8672 21.442 43.8442 21.3203 43.8091Z" fill="#FF725E"/>
<path d="M17.5164 35.7834C17.5851 35.8773 17.6453 35.9772 17.6963 36.0818L18.1361 36.9242C18.4999 37.633 18.9968 38.6264 19.5336 39.7194C20.0704 40.8124 20.5508 41.8147 20.8912 42.5398L21.2839 43.4006C21.3399 43.504 21.3819 43.6144 21.4088 43.7289C21.3401 43.635 21.2798 43.5352 21.2288 43.4306L20.7928 42.5754C20.4248 41.8653 19.9109 40.867 19.3953 39.7802C18.8798 38.6935 18.3782 37.6848 18.0377 36.9598L17.645 36.099C17.5887 35.9998 17.5455 35.8937 17.5164 35.7834Z" fill="#FF725E"/>
<path d="M9.86182 44.7568C9.94995 44.8768 10.0267 45.0048 10.0909 45.1391L10.6558 46.2312C11.126 47.1427 11.7684 48.4103 12.4754 49.8034C13.1823 51.1965 13.8039 52.4719 14.2522 53.3953L14.7787 54.4761C14.8498 54.6076 14.9081 54.7456 14.9527 54.8883C14.8646 54.7683 14.7879 54.6403 14.7236 54.506L14.163 53.4152C13.6885 52.5025 13.0461 51.2349 12.3392 49.8417C11.6322 48.4486 11.0106 47.1733 10.5624 46.2498L10.0358 45.1691C9.96636 45.0368 9.90814 44.8989 9.86182 44.7568Z" fill="#FF725E"/>
<path d="M14.8999 54.6141C15.054 54.5952 15.2096 54.5932 15.3642 54.6081L16.665 54.6508C17.7648 54.6849 19.2776 54.7301 20.9571 54.7276C22.6366 54.7251 24.1483 54.696 25.2457 54.66L26.5479 54.6198C26.702 54.6079 26.8568 54.6073 27.0109 54.6181C26.8538 54.6548 26.693 54.674 26.5316 54.6751C26.2267 54.7052 25.7829 54.7357 25.2363 54.7543C24.1398 54.8184 22.6206 54.873 20.9424 54.8712C19.2641 54.8695 17.7253 54.8027 16.647 54.7426C16.0973 54.7094 15.6528 54.6797 15.3473 54.6494C15.1975 54.6489 15.0479 54.6371 14.8999 54.6141Z" fill="#FF725E"/>
</svg>
