<svg width="46" height="46" viewBox="0 0 46 46" fill="none" xmlns="http://www.w3.org/2000/svg">
<path d="M22.7676 4.91526C28.7318 4.91526 29.4383 4.93804 31.7936 5.04551C33.9714 5.14481 35.1542 5.5087 35.9412 5.8146C36.9839 6.2198 37.728 6.70383 38.5096 7.48542C39.2912 8.26711 39.7753 9.01119 40.1805 10.0538C40.4864 10.8409 40.8503 12.0236 40.9496 14.2014C41.057 16.5568 41.0798 17.2633 41.0798 23.2274C41.0798 29.1916 41.057 29.8981 40.9496 32.2534C40.8503 34.4313 40.4864 35.614 40.1805 36.4011C39.7753 37.4437 39.2912 38.1878 38.5096 38.9694C37.728 39.7511 36.9839 40.2351 35.9412 40.6403C35.1542 40.9462 33.9714 41.3101 31.7936 41.4094C29.4386 41.5168 28.7322 41.5396 22.7676 41.5396C16.8029 41.5396 16.0966 41.5168 13.7415 41.4094C11.5637 41.3101 10.381 40.9462 9.5939 40.6403C8.55128 40.2351 7.80719 39.7511 7.02559 38.9694C6.24399 38.1878 5.75988 37.4437 5.35467 36.4011C5.04877 35.614 4.68488 34.4313 4.58558 32.2534C4.47811 29.8981 4.45533 29.1916 4.45533 23.2274C4.45533 17.2633 4.47811 16.5568 4.58558 14.2014C4.68488 12.0236 5.04877 10.8409 5.35467 10.0538C5.75988 9.01119 6.24391 8.26711 7.02559 7.48551C7.80719 6.70383 8.55128 6.2198 9.5939 5.8146C10.381 5.5087 11.5637 5.14481 13.7415 5.04551C16.0969 4.93804 16.8034 4.91526 22.7676 4.91526ZM22.7676 0.89061C16.7012 0.89061 15.9406 0.916323 13.5581 1.02503C11.1806 1.13347 9.55684 1.5111 8.13605 2.06322C6.6672 2.63405 5.42152 3.39782 4.17966 4.63959C2.93789 5.88145 2.17411 7.12712 1.60337 8.59597C1.05115 10.0168 0.673522 11.6405 0.565082 14.018C0.456377 16.4005 0.430664 17.1611 0.430664 23.2274C0.430664 29.2938 0.456377 30.0544 0.565082 32.4369C0.673522 34.8144 1.05115 36.4381 1.60337 37.8589C2.17411 39.3278 2.93789 40.5734 4.17966 41.8153C5.42152 43.0571 6.6672 43.8208 8.13605 44.3916C9.55684 44.9438 11.1806 45.3214 13.5581 45.4299C15.9406 45.5386 16.7012 45.5643 22.7676 45.5643C28.8339 45.5643 29.5946 45.5386 31.9771 45.4299C34.3546 45.3214 35.9783 44.9438 37.3991 44.3916C38.8679 43.8208 40.1136 43.0571 41.3555 41.8153C42.5973 40.5734 43.361 39.3278 43.9319 37.8589C44.484 36.4381 44.8616 34.8144 44.9701 32.4369C45.0788 30.0544 45.1045 29.2938 45.1045 23.2274C45.1045 17.1611 45.0788 16.4005 44.9701 14.018C44.8616 11.6405 44.484 10.0168 43.9319 8.59597C43.361 7.12712 42.5973 5.88145 41.3555 4.63959C40.1136 3.39782 38.8679 2.63405 37.3991 2.06322C35.9783 1.5111 34.3546 1.13347 31.9771 1.02503C29.5946 0.916323 28.8339 0.89061 22.7676 0.89061Z" fill="white"/>
<path d="M22.778 11.7695C16.443 11.7695 11.3076 16.9048 11.3076 23.2397C11.3076 29.5746 16.443 34.71 22.778 34.71C29.1128 34.71 34.2482 29.5746 34.2482 23.2397C34.2482 16.9048 29.1128 11.7695 22.778 11.7695ZM22.778 30.6853C18.6658 30.6853 15.3323 27.3518 15.3323 23.2397C15.3323 19.1276 18.6658 15.7941 22.778 15.7941C26.89 15.7941 30.2236 19.1276 30.2236 23.2397C30.2236 27.3518 26.89 30.6853 22.778 30.6853Z" fill="white"/>
<path d="M37.3804 11.3098C37.3804 12.7901 36.1803 13.9902 34.6999 13.9902C33.2196 13.9902 32.0195 12.7901 32.0195 11.3098C32.0195 9.82945 33.2196 8.62935 34.6999 8.62935C36.1803 8.62935 37.3804 9.82945 37.3804 11.3098Z" fill="white"/>
</svg>
