<svg width="59" height="59" viewBox="0 0 59 59" fill="none" xmlns="http://www.w3.org/2000/svg">
<g clip-path="url(#clip0)">
<rect x="6.06055" y="6.0604" width="46.7517" height="45.0201" fill="white"/>
<path d="M54.5265 0H4.34593C3.19332 0 2.08792 0.457875 1.2729 1.2729C0.457875 2.08792 0 3.19332 0 4.34593V54.5265C0 55.6792 0.457875 56.7846 1.2729 57.5996C2.08792 58.4146 3.19332 58.8725 4.34593 58.8725H54.5265C55.6792 58.8725 56.7846 58.4146 57.5996 57.5996C58.4146 56.7846 58.8725 55.6792 58.8725 54.5265V4.34593C58.8725 3.19332 58.4146 2.08792 57.5996 1.2729C56.7846 0.457875 55.6792 0 54.5265 0ZM17.5473 50.152H8.69596V22.0363H17.5473V50.152ZM13.1155 18.1401C12.1115 18.1344 11.1316 17.8315 10.2996 17.2695C9.46756 16.7075 8.82067 15.9116 8.44054 14.9823C8.06042 14.053 7.96409 13.0319 8.16373 12.0479C8.36336 11.0639 8.85001 10.1611 9.56225 9.4534C10.2745 8.74572 11.1804 8.26488 12.1657 8.07157C13.1509 7.87825 14.1714 7.98113 15.0982 8.36722C16.0251 8.7533 16.8168 9.40529 17.3734 10.2409C17.9301 11.0765 18.2267 12.0583 18.2259 13.0623C18.2354 13.7345 18.1094 14.4018 17.8556 15.0243C17.6017 15.6468 17.2251 16.2118 16.7482 16.6856C16.2713 17.1594 15.7039 17.5324 15.0798 17.7823C14.4556 18.0322 13.7876 18.1539 13.1155 18.1401ZM50.1724 50.1765H41.3252V34.8165C41.3252 30.2866 39.3996 28.8884 36.9139 28.8884C34.2891 28.8884 31.7135 30.8672 31.7135 34.931V50.1765H22.8621V22.0567H31.3741V25.953H31.4886C32.3431 24.2236 35.3358 21.2677 39.9025 21.2677C44.8412 21.2677 50.1765 24.199 50.1765 32.7846L50.1724 50.1765Z" fill="#FF725E"/>
</g>
<defs>
<clipPath id="clip0">
<rect width="58.8725" height="58.8725" fill="white"/>
</clipPath>
</defs>
</svg>
