<svg width="570" height="423" viewBox="0 0 570 423" fill="none" xmlns="http://www.w3.org/2000/svg">
<path d="M315.492 260.091H290.197C290.329 251.576 288.767 243.121 285.6 235.216C282.433 227.311 277.726 220.115 271.752 214.047C265.777 207.979 258.656 203.16 250.801 199.871C242.947 196.582 234.516 194.888 226.001 194.888C217.486 194.888 209.055 196.582 201.201 199.871C193.346 203.16 186.225 207.979 180.25 214.047C174.276 220.115 169.569 227.311 166.402 235.216C163.236 243.121 161.673 251.576 161.806 260.091H136.51C136.82 236.56 146.385 214.099 163.134 197.57C179.883 181.04 202.469 171.772 226.001 171.772C249.533 171.772 272.119 181.04 288.868 197.57C305.617 214.099 315.182 236.56 315.492 260.091Z" fill="#FF725E"/>
<g opacity="0.8">
<path opacity="0.8" d="M315.492 260.091H290.197C290.329 251.576 288.767 243.121 285.6 235.216C282.433 227.311 277.726 220.115 271.752 214.047C265.777 207.979 258.656 203.16 250.801 199.871C242.947 196.582 234.516 194.888 226.001 194.888C217.486 194.888 209.055 196.582 201.201 199.871C193.346 203.16 186.225 207.979 180.25 214.047C174.276 220.115 169.569 227.311 166.402 235.216C163.236 243.121 161.673 251.576 161.806 260.091H136.51C136.82 236.56 146.385 214.099 163.134 197.57C179.883 181.04 202.469 171.772 226.001 171.772C249.533 171.772 272.119 181.04 288.868 197.57C305.617 214.099 315.182 236.56 315.492 260.091Z" fill="white"/>
</g>
<path d="M338.936 260.091H312.816C312.511 237.267 303.23 215.482 286.982 199.45C270.734 183.418 248.827 174.43 226.001 174.43C203.176 174.43 181.268 183.418 165.02 199.45C148.772 215.482 139.491 237.267 139.186 260.091H113.05C113.05 230.136 124.95 201.409 146.131 180.228C167.311 159.047 196.039 147.148 225.993 147.148C255.948 147.148 284.675 159.047 305.856 180.228C327.037 201.409 338.936 230.136 338.936 260.091Z" fill="#FF725E"/>
<g opacity="0.6">
<path opacity="0.6" d="M338.936 260.091H312.816C312.511 237.267 303.23 215.482 286.982 199.45C270.734 183.418 248.827 174.43 226.001 174.43C203.176 174.43 181.268 183.418 165.02 199.45C148.772 215.482 139.491 237.267 139.186 260.091H113.05C113.05 230.136 124.95 201.409 146.131 180.228C167.311 159.047 196.039 147.148 225.993 147.148C255.948 147.148 284.675 159.047 305.856 180.228C327.037 201.409 338.936 230.136 338.936 260.091Z" fill="white"/>
</g>
<path d="M365.103 260.091H338.936C338.936 230.136 327.037 201.409 305.856 180.228C284.675 159.047 255.947 147.148 225.993 147.148C196.039 147.148 167.311 159.047 146.13 180.228C124.949 201.409 113.05 230.136 113.05 260.091H86.8989C86.7044 241.7 90.1587 223.453 97.0621 206.406C103.965 189.358 114.181 173.849 127.117 160.776C140.053 147.702 155.453 137.323 172.426 130.24C189.4 123.157 207.609 119.51 226.001 119.51C244.393 119.51 262.602 123.157 279.575 130.24C296.549 137.323 311.949 147.702 324.885 160.776C337.821 173.849 348.036 189.358 354.94 206.406C361.843 223.453 365.297 241.7 365.103 260.091Z" fill="#FF725E"/>
<g opacity="0.4">
<path opacity="0.4" d="M365.103 260.091H338.936C338.936 230.136 327.037 201.409 305.856 180.228C284.675 159.047 255.947 147.148 225.993 147.148C196.039 147.148 167.311 159.047 146.13 180.228C124.949 201.409 113.05 230.136 113.05 260.091H86.8989C86.7044 241.7 90.1587 223.453 97.0621 206.406C103.965 189.358 114.181 173.849 127.117 160.776C140.053 147.702 155.453 137.323 172.426 130.24C189.4 123.157 207.609 119.51 226.001 119.51C244.393 119.51 262.602 123.157 279.575 130.24C296.549 137.323 311.949 147.702 324.885 160.776C337.821 173.849 348.036 189.358 354.94 206.406C361.843 223.453 365.297 241.7 365.103 260.091Z" fill="white"/>
</g>
<path d="M387.178 260.091H361.027C360.645 224.531 346.251 190.557 320.971 165.546C295.69 140.535 261.563 126.507 226.001 126.507C190.439 126.507 156.312 140.535 131.032 165.546C105.751 190.557 91.3568 224.531 90.9751 260.091H64.8239C64.6147 238.792 68.6291 217.662 76.6352 197.924C84.6413 178.185 96.4802 160.229 111.468 145.094C126.455 129.958 144.294 117.944 163.953 109.744C183.612 101.544 204.701 97.3225 226.001 97.3225C247.301 97.3225 268.391 101.544 288.049 109.744C307.708 117.944 325.547 129.958 340.535 145.094C355.522 160.229 367.361 178.185 375.367 197.924C383.373 217.662 387.388 238.792 387.178 260.091Z" fill="#FF725E"/>
<g opacity="0.3">
<path opacity="0.3" d="M387.178 260.091H361.027C360.645 224.531 346.251 190.557 320.971 165.546C295.69 140.535 261.563 126.507 226.001 126.507C190.439 126.507 156.312 140.535 131.032 165.546C105.751 190.557 91.3568 224.531 90.9751 260.091H64.8239C64.6147 238.792 68.6291 217.662 76.6352 197.924C84.6413 178.185 96.4802 160.229 111.468 145.094C126.455 129.958 144.294 117.944 163.953 109.744C183.612 101.544 204.701 97.3225 226.001 97.3225C247.301 97.3225 268.391 101.544 288.049 109.744C307.708 117.944 325.547 129.958 340.535 145.094C355.522 160.229 367.361 178.185 375.367 197.924C383.373 217.662 387.388 238.792 387.178 260.091Z" fill="white"/>
</g>
<path d="M407.113 253.597H381.833C381.422 212.416 364.774 173.061 335.508 144.085C306.243 115.11 266.724 98.8562 225.54 98.8562C184.357 98.8562 144.838 115.11 115.572 144.085C86.3062 173.061 69.6588 212.416 69.2479 253.597H43.968C43.746 229.611 48.2785 205.819 57.3038 183.595C66.3291 161.371 79.6683 141.155 96.5509 124.115C113.434 107.076 133.525 93.55 155.665 84.3194C177.804 75.0888 201.553 70.3362 225.54 70.3362C249.527 70.3362 273.276 75.0888 295.416 84.3194C317.556 93.55 337.647 107.076 354.53 124.115C371.412 141.155 384.751 161.371 393.777 183.595C402.802 205.819 407.335 229.611 407.113 253.597Z" fill="#FF725E"/>
<g opacity="0.1">
<path opacity="0.1" d="M569.137 251.085H543.857C543.446 209.904 526.799 170.549 497.533 141.573C468.267 112.598 428.748 96.3442 387.565 96.3442C346.381 96.3442 306.862 112.598 277.596 141.573C248.331 170.549 231.683 209.904 231.272 251.085H205.992C205.77 227.099 210.303 203.307 219.328 181.083C228.354 158.859 241.693 138.643 258.575 121.603C275.458 104.564 295.549 91.0381 317.689 81.8074C339.829 72.5768 363.578 67.8242 387.565 67.8242C411.552 67.8242 435.301 72.5768 457.44 81.8074C479.58 91.0381 499.671 104.564 516.554 121.603C533.437 138.643 546.776 158.859 555.801 181.083C564.826 203.307 569.359 227.099 569.137 251.085Z" fill="white"/>
</g>
<path d="M431.967 260.091H406.671C406.893 236.224 402.383 212.55 393.403 190.435C384.423 168.321 371.15 148.206 354.351 131.25C337.552 114.295 317.56 100.836 295.531 91.6508C273.501 82.4658 249.869 77.7367 226.001 77.7367C202.133 77.7367 178.502 82.4658 156.472 91.6508C134.442 100.836 114.45 114.295 97.6513 131.25C80.8525 148.206 67.5797 168.321 58.5995 190.435C49.6193 212.55 45.1097 236.224 45.3312 260.091H20.0356C20.0356 146.526 112.428 54.1333 225.993 54.1333C339.559 54.1333 431.967 146.526 431.967 260.091Z" fill="#FF725E"/>
<path d="M7.66789 187.114C10.9762 179.878 16.2031 173.686 22.7815 169.211C29.3598 164.736 37.0383 162.147 44.9835 161.727C52.9288 161.307 60.8374 163.071 67.8509 166.828C74.8645 170.585 80.7151 176.191 84.7678 183.038C87.9782 176.448 93.4344 171.22 100.155 168.294C106.876 165.368 114.42 164.936 121.431 167.075C128.442 169.215 134.459 173.786 138.401 179.966C142.343 186.145 143.951 193.529 142.935 200.788C147.498 197.95 152.791 196.507 158.164 196.636C163.536 196.765 168.754 198.46 173.176 201.514C177.598 204.568 181.032 208.847 183.055 213.825C185.078 218.804 185.603 224.265 184.565 229.538C189.263 228.806 194.071 229.345 198.491 231.097C202.911 232.849 206.782 235.751 209.703 239.502C212.624 243.253 214.489 247.717 215.105 252.431C215.721 257.145 215.065 261.938 213.206 266.314C146.373 269.425 79.4785 269.825 12.5216 267.512C10.4034 267.643 8.29486 267.133 6.47 266.05C4.57206 264.634 3.872 262.16 3.35862 259.827C-2.36679 234.626 -0.747115 208.311 8.02569 184.002" fill="white"/>
<path d="M465.865 216.968C463.102 210.919 458.735 205.742 453.238 202C447.741 198.258 441.324 196.093 434.683 195.74C428.042 195.388 421.432 196.861 415.57 199.999C409.707 203.138 404.816 207.823 401.428 213.545C398.738 208.043 394.174 203.68 388.556 201.239C382.938 198.799 376.634 198.442 370.776 200.232C364.918 202.021 359.89 205.84 356.595 211.003C353.3 216.167 351.953 222.335 352.797 228.402C348.984 226.025 344.558 224.814 340.066 224.919C335.573 225.023 331.209 226.439 327.51 228.991C323.811 231.543 320.938 235.12 319.245 239.283C317.552 243.446 317.113 248.013 317.981 252.422C314.052 251.81 310.032 252.261 306.336 253.726C302.64 255.191 299.403 257.618 296.961 260.756C294.519 263.893 292.96 267.626 292.446 271.569C291.932 275.511 292.482 279.519 294.039 283.178C349.909 285.791 405.831 286.123 461.805 284.173C463.574 284.288 465.336 283.865 466.86 282.96C468.304 281.589 469.223 279.756 469.459 277.78C474.24 256.707 472.874 234.705 465.523 214.385" fill="white"/>
<path d="M467.39 92.1246C468.627 85.4041 462.703 74.7131 457.22 70.645C454.439 68.631 451.161 67.4148 447.74 67.1281C444.318 66.8413 440.884 67.4947 437.807 69.0178C438.107 65.3317 437.29 61.6406 435.461 58.4258C433.633 55.211 430.879 52.6216 427.557 50.9951C424.236 49.3686 420.501 48.7805 416.841 49.3075C413.18 49.8345 409.763 51.4522 407.036 53.9495C404.774 43.763 397.858 34.1298 387.899 31.0217C377.941 27.9137 365.443 33.2999 362.823 43.3888C353.174 35.6919 337.048 38.3118 330.279 48.6936C329.454 50.3772 328.271 51.8601 326.813 53.0383C324.046 54.7794 320.499 53.4939 317.293 52.9406C312.491 52.2581 307.603 53.2903 303.487 55.8558C299.371 58.4213 296.291 62.3558 294.789 66.9674C282.405 59.531 254.612 77.8537 252.236 92.092L467.39 92.1246Z" fill="#FF725E"/>
<g opacity="0.7">
<path opacity="0.7" d="M467.39 92.1246C468.627 85.4041 462.703 74.7131 457.22 70.645C454.439 68.631 451.161 67.4148 447.74 67.1281C444.318 66.8413 440.884 67.4947 437.807 69.0178C438.107 65.3317 437.29 61.6406 435.461 58.4258C433.633 55.211 430.879 52.6216 427.557 50.9951C424.236 49.3686 420.501 48.7805 416.841 49.3075C413.18 49.8345 409.763 51.4522 407.036 53.9495C404.774 43.763 397.858 34.1298 387.899 31.0217C377.941 27.9137 365.443 33.2999 362.823 43.3888C353.174 35.6919 337.048 38.3118 330.279 48.6936C329.454 50.3772 328.271 51.8601 326.813 53.0383C324.046 54.7794 320.499 53.4939 317.293 52.9406C312.491 52.2581 307.603 53.2903 303.487 55.8558C299.371 58.4213 296.291 62.3558 294.789 66.9674C282.405 59.531 254.612 77.8537 252.236 92.092L467.39 92.1246Z" fill="white"/>
</g>
<path d="M158.242 117.245C158.878 113.793 155.835 108.301 153.018 106.212C151.59 105.177 149.906 104.552 148.149 104.405C146.392 104.258 144.627 104.593 143.047 105.376C143.201 103.482 142.781 101.586 141.842 99.9352C140.903 98.2839 139.488 96.9538 137.782 96.1184C136.076 95.2829 134.158 94.9809 132.278 95.2516C130.397 95.5223 128.642 96.3532 127.241 97.6359C126.079 92.4036 122.527 87.4555 117.412 85.859C112.296 84.2626 105.877 87.0292 104.532 92.2114C99.5751 88.2579 91.292 89.6036 87.8149 94.9362C87.3913 95.801 86.7836 96.5627 86.0345 97.1679C84.6136 98.0622 82.7915 97.4019 81.1449 97.1177C78.6784 96.7671 76.1673 97.2973 74.0531 98.6151C71.9388 99.9329 70.3569 101.954 69.5853 104.323C63.2246 100.503 48.9486 109.914 47.7283 117.228L158.242 117.245Z" fill="#FF725E"/>
<g opacity="0.7">
<path opacity="0.7" d="M158.242 117.245C158.878 113.793 155.835 108.301 153.018 106.212C151.59 105.177 149.906 104.552 148.149 104.405C146.392 104.258 144.627 104.593 143.047 105.376C143.201 103.482 142.781 101.586 141.842 99.9352C140.903 98.2839 139.488 96.9538 137.782 96.1184C136.076 95.2829 134.158 94.9809 132.278 95.2516C130.397 95.5223 128.642 96.3532 127.241 97.6359C126.079 92.4036 122.527 87.4555 117.412 85.859C112.296 84.2626 105.877 87.0292 104.532 92.2114C99.5751 88.2579 91.292 89.6036 87.8149 94.9362C87.3913 95.801 86.7836 96.5627 86.0345 97.1679C84.6136 98.0622 82.7915 97.4019 81.1449 97.1177C78.6784 96.7671 76.1673 97.2973 74.0531 98.6151C71.9388 99.9329 70.3569 101.954 69.5853 104.323C63.2246 100.503 48.9486 109.914 47.7283 117.228L158.242 117.245Z" fill="white"/>
</g>
<path d="M513.525 421.794C513.525 421.943 411.05 422.053 284.676 422.053C158.302 422.053 55.8066 421.943 55.8066 421.794C55.8066 421.644 158.262 421.534 284.676 421.534C411.09 421.534 513.525 421.624 513.525 421.794Z" fill="#263238"/>
</svg>
