<svg width="48" height="47" viewBox="0 0 48 47" fill="none" xmlns="http://www.w3.org/2000/svg">
<path d="M24.2054 0C11.3174 0 0.87207 10.4453 0.87207 23.3333C0.87207 36.2214 11.3174 46.6667 24.2054 46.6667C37.0934 46.6667 47.5387 36.2214 47.5387 23.3333C47.5387 10.4453 37.0934 0 24.2054 0ZM24.2054 4.66667C34.4958 4.66667 42.8721 13.043 42.8721 23.3333C42.8721 24.4271 42.7627 25.5026 42.5804 26.5417C42.0062 26.4141 41.1585 26.2591 40.1742 26.25C39.445 26.2409 38.5335 26.3594 37.7679 26.4688C38.0322 25.6576 38.2054 24.7643 38.2054 23.8438C38.2054 21.6016 37.1117 19.5143 35.3617 17.7917C35.8447 15.9961 36.3187 12.9154 35.07 11.6667C31.3786 11.6667 29.3369 14.3008 29.2367 14.4375C28.0973 14.1641 26.9216 14 25.6637 14C24.0505 14 22.5101 14.2917 21.07 14.7292L21.5075 14.3646C21.5075 14.3646 19.4567 11.5208 15.6742 11.5208C14.3525 12.8516 14.9541 16.224 15.4554 17.9375C13.6689 19.6419 12.5387 21.6562 12.5387 23.8438C12.5387 24.6094 12.8669 25.9948 13.0492 26.6875C12.402 26.6146 9.92285 26.3229 8.96582 26.3229C8.11816 26.3229 6.88942 26.5805 5.84124 26.8175C5.69541 25.8878 5.53874 24.2995 5.53874 23.3333C5.53874 13.043 13.915 4.66667 24.2054 4.66667ZM8.96582 26.3229C9.88639 26.3229 12.6846 26.651 13.0492 26.6875C13.0947 26.8151 13.1403 26.9336 13.195 27.0521C12.1924 26.9609 10.251 26.8242 8.96582 26.9792C8.10905 27.0794 7.0153 27.3893 6.04915 27.6354C5.97624 27.3438 5.89593 27.1182 5.84124 26.8175C6.86207 26.5987 8.19108 26.3229 8.96582 26.3229ZM40.1742 26.25C41.1038 26.2591 42.0244 26.4141 42.5804 26.5417C42.5531 26.6966 42.2523 27.9909 42.2158 28.1458C41.6234 28.0091 40.7939 27.8086 39.6637 27.7812C39.1169 27.7721 37.8773 27.7995 37.1117 27.8542C37.1481 27.7812 37.7406 26.5417 37.7679 26.4688C38.5609 26.3594 39.3538 26.2409 40.1742 26.25ZM10.0627 26.9117C11.3752 26.9208 12.6755 27.0065 13.195 27.0521C14.4163 29.3307 17.1781 31.6003 20.9971 32.3021C20.0583 32.8216 19.2197 33.5508 18.5908 34.4167C18.0439 34.4622 17.4697 34.4896 16.9137 34.4896C15.2913 34.4896 14.2796 33.0404 13.4137 31.7917C12.5387 30.543 11.4632 30.4062 10.8617 30.3333C10.251 30.2604 10.0413 30.6068 10.3512 30.8437C12.1286 32.2109 12.7666 33.8333 13.4867 35.2917C14.1338 36.6042 15.4919 37.3333 16.9867 37.3333H17.2783C17.2327 37.5885 17.2054 37.8255 17.2054 38.0625V40.6146C11.8187 38.4362 7.57129 33.3229 6.04915 27.6354C7.00618 27.3984 8.06087 27.1003 8.87207 27C9.24577 26.9544 9.52497 26.9026 10.0627 26.9117ZM39.6637 27.7812C40.7119 27.8086 41.6416 28.0091 42.2158 28.1458C40.9307 32.9766 37.7588 36.9961 33.5387 39.4479V38.0625C33.5387 36.0755 31.971 33.5234 29.7471 32.3021C33.4385 31.6276 35.8447 30.0143 37.1117 27.8542C37.9958 27.7904 39.0348 27.763 39.6637 27.7812ZM25.8721 43C26.5101 43 26.5387 42.862 26.5387 43.5V41.8542C25.7731 41.9544 24.9984 42 24.2054 42L25.3721 44.5C25.3721 43.862 25.2341 43 25.8721 43ZM20.8721 42C21.5101 42 21.3721 41.862 21.3721 42.5L21.8721 41.8542C21.0882 41.7539 20.2952 41.6081 19.5387 41.4167L19.8721 42.5C19.8721 41.862 20.2341 42 20.8721 42ZM30.3721 42.5C30.9372 42.5 31.096 40.0768 31.2054 40.6146C30.4489 40.9245 29.6742 41.207 28.8721 41.4167L29.3721 42.5C29.3721 41.862 29.7341 42.5 30.3721 42.5Z" fill="white"/>
</svg>
